<?xml version="1.0" standalone="no"?>
<!DOCTYPE svg PUBLIC "-//W3C//DTD SVG 20010904//EN"
 "http://www.w3.org/TR/2001/REC-SVG-20010904/DTD/svg10.dtd">
<svg version="1.0" xmlns="http://www.w3.org/2000/svg"
 width="350.000000pt" height="492.000000pt" viewBox="0 0 350.000000 492.000000"
 preserveAspectRatio="xMidYMid meet">
<metadata>
Created by potrace 1.10, written by Peter Selinger 2001-2011
</metadata>
<g transform="translate(0.000000,492.000000) scale(0.100000,-0.100000)"
fill="#000000" stroke="none">
<g>
<g>
<path fill="#000000" stroke="none" d="M20 2460 c0 -1627 3 -2450 10 -2450 7
0 10 823 10 2450 0 1627 -3 2450 -10 2450 -7 0 -10 -823 -10 -2450z"/>
</g>
</g>
<g>
<g>
<path fill="#000000" stroke="none" d="M217 4823 c-11 -10 -8 -71 3 -78 6 -3
10 3 10 14 0 11 8 22 18 24 16 4 16 5 0 6 -25 1 -23 21 2 21 11 0 20 5 20 10
0 11 -43 14 -53 3z"/>
</g>
</g>
<g>
<g>
<path fill="#000000" stroke="none" d="M634 4816 c-3 -8 -4 -27 -2 -43 2 -22
9 -29 31 -31 15 -2 27 1 27 7 0 6 -9 11 -20 11 -28 0 -25 20 3 21 21 0 21 1
-3 11 -25 11 -25 11 -2 15 12 3 22 9 22 14 0 15 -50 10 -56 -5z"/>
</g>
</g>
<g>
<g>
<path fill="#000000" stroke="none" d="M1861 4815 c-40 -7 -87 -19 -104 -26
-17 -7 -56 -12 -86 -10 -100 6 -135 2 -210 -24 -56 -19 -95 -25 -156 -25 -75
0 -129 -11 -190 -39 -11 -5 -36 -14 -55 -20 -31 -10 -110 -57 -366 -221 -216
-138 -278 -237 -341 -546 -48 -242 -33 -433 49 -586 48 -90 135 -179 219 -223
111 -58 195 -58 412 0 26 7 47 11 47 9 0 -3 -18 -33 -40 -67 -55 -87 -72 -132
-72 -191 -1 -93 46 -162 124 -185 24 -8 71 -35 105 -62 33 -27 77 -56 96 -64
100 -42 366 -59 463 -30 28 8 88 37 135 65 175 106 424 212 552 236 70 14 92
13 199 0 145 -19 210 -20 226 -4 7 7 53 16 105 19 139 9 221 48 345 164 73 67
79 87 78 270 -1 99 -6 173 -13 195 -7 19 -19 60 -28 92 -9 34 -31 76 -54 106
-21 27 -49 68 -61 91 -12 24 -40 63 -62 87 -40 44 -57 89 -58 154 0 19 -11 52
-23 74 -27 44 -99 96 -134 96 -21 0 -23 4 -23 45 0 51 -25 109 -62 141 -12 12
-50 39 -83 61 -33 22 -82 67 -108 100 -54 68 -114 105 -195 122 -42 9 -63 20
-95 54 -32 32 -70 54 -155 90 -165 70 -232 79 -381 52z"/>
<path fill="#ffffff" stroke="none" d="M2090 4799 c37 -8 153 -54 169 -66 6
-4 -14 -19 -135 -103 -106 -72 -180 -146 -191 -188 -7 -30 7 -88 41 -167 31
-72 32 -104 7 -153 -26 -51 -43 -64 -153 -116 -116 -56 -133 -76 -154 -183 -8
-43 -28 -111 -45 -152 -22 -52 -32 -93 -33 -137 -1 -35 -6 -67 -10 -71 -5 -4
-6 44 -3 107 4 92 13 143 44 255 54 193 63 208 135 247 85 45 103 82 103 213
0 83 -5 113 -27 177 -25 69 -26 83 -17 132 12 68 -3 112 -51 146 l-33 23 24
10 c81 31 249 44 329 26z"/>
<path fill="#ffffff" stroke="none" d="M1742 4734 c60 -39 72 -64 60 -130 -10
-59 -5 -90 24 -164 13 -33 18 -74 18 -150 1 -127 -14 -161 -89 -202 -28 -15
-59 -38 -71 -51 -22 -26 -86 -233 -110 -355 -8 -43 -14 -111 -13 -152 2 -73 1
-77 -30 -107 -17 -17 -31 -38 -31 -47 0 -19 -26 -37 -100 -69 -54 -24 -56 -24
-78 -7 l-22 18 48 30 c64 39 82 79 89 195 4 61 12 105 25 130 24 48 58 179 58
223 0 22 -12 46 -40 80 -47 57 -57 98 -41 166 23 101 5 172 -73 291 -24 37
-47 85 -51 106 -9 52 -29 68 -105 84 -67 13 -98 39 -70 57 30 19 87 30 165 31
60 0 103 8 170 29 111 36 205 34 267 -6z"/>
<path fill="#ffffff" stroke="none" d="M2348 4691 c22 -16 43 -34 46 -40 8
-12 -46 -41 -134 -70 -112 -37 -162 -70 -188 -123 -22 -44 -23 -51 -10 -90 10
-33 23 -47 58 -68 71 -41 85 -82 80 -235 -2 -46 -7 -55 -60 -115 -46 -51 -61
-62 -71 -53 -10 10 -10 15 0 27 7 8 10 20 6 26 -8 13 -45 13 -45 0 0 -5 7 -7
15 -4 8 4 15 2 15 -4 0 -5 -7 -15 -15 -22 -21 -18 -19 -40 5 -40 11 0 20 -3
20 -7 0 -16 -76 -73 -153 -114 -100 -54 -142 -105 -191 -231 -16 -41 -46 -55
-92 -44 -25 7 -26 9 -22 64 3 33 17 86 35 127 17 39 36 103 43 144 10 61 18
80 46 110 18 20 34 31 34 24 0 -7 6 -10 14 -7 9 4 14 -3 14 -20 0 -17 -6 -26
-16 -26 -12 0 -13 -3 -5 -11 20 -20 43 -3 40 29 -2 15 -7 34 -11 41 -10 16
-13 13 66 50 138 66 175 159 111 286 -11 22 -25 62 -32 89 -11 46 -10 50 15
85 34 47 62 71 154 134 41 28 94 66 118 84 24 18 49 33 56 33 7 0 31 -13 54
-29z"/>
<path fill="#ffffff" stroke="none" d="M1118 4639 c11 -12 44 -27 87 -37 72
-18 87 -31 99 -93 3 -14 26 -56 50 -94 57 -85 80 -152 73 -208 -19 -143 -19
-151 1 -189 11 -21 15 -38 10 -38 -24 0 -69 67 -108 162 -34 80 -54 113 -91
149 -59 59 -150 102 -258 124 -46 9 -108 29 -138 44 l-54 27 103 66 c115 73
176 107 196 108 8 0 21 -9 30 -21z"/>
<path fill="#ffffff" stroke="none" d="M2420 4615 c0 -10 -88 -54 -130 -65
-56 -15 -95 -47 -79 -67 7 -7 31 -13 56 -13 65 0 67 -22 7 -75 -69 -61 -125
-88 -157 -76 -32 12 -47 39 -47 85 0 65 65 116 210 165 36 12 76 28 90 36 25
14 50 19 50 10z"/>
<path fill="#ffffff" stroke="none" d="M2569 4571 c21 -11 64 -48 95 -83 31
-35 91 -88 134 -118 83 -60 122 -116 122 -176 0 -42 -26 -72 -104 -124 -64
-41 -67 -42 -126 -35 -40 5 -71 3 -90 -5 -24 -10 -32 -9 -57 8 -15 11 -45 23
-65 26 -20 4 -57 15 -81 26 -49 22 -82 17 -141 -19 l-33 -21 0 79 c1 67 -3 84
-26 123 l-27 46 28 11 c32 14 152 123 152 139 0 24 -33 42 -76 42 -59 0 -49
15 25 36 32 9 78 29 102 46 37 24 51 28 87 24 23 -3 60 -15 81 -25z"/>
<path fill="#ffffff" stroke="none" d="M975 4395 c102 -20 143 -36 216 -86 61
-41 64 -46 149 -237 28 -61 80 -112 115 -112 44 0 57 -63 33 -154 -13 -50 -37
-66 -94 -66 -29 0 -45 10 -88 50 -29 28 -60 50 -69 50 -9 0 -39 -9 -67 -20
-71 -28 -91 -16 -50 30 45 51 55 98 41 205 -7 49 -17 95 -23 102 -14 17 -40 9
-93 -27 -22 -15 -96 -47 -163 -70 -122 -42 -125 -42 -240 -38 -101 3 -125 7
-175 30 l-57 27 19 52 c49 127 109 196 254 294 l78 52 67 -33 c37 -18 103 -40
147 -49z"/>
<path fill="#ffffff" stroke="none" d="M1134 4133 c4 -9 9 -58 13 -108 7 -118
-7 -144 -145 -267 -16 -15 -39 -46 -50 -70 -67 -144 -101 -227 -107 -259 -10
-57 -19 -66 -49 -50 -51 28 -60 118 -20 206 22 48 26 67 22 125 -3 58 -9 76
-36 113 -18 25 -32 55 -32 66 0 12 16 45 35 74 35 52 38 54 134 86 54 17 122
47 152 66 61 39 74 42 83 18z"/>
<path fill="#ffffff" stroke="none" d="M2994 4125 c63 -30 96 -75 106 -146 16
-100 17 -104 62 -158 24 -28 55 -73 71 -101 l27 -50 -27 -10 c-57 -20 -78 -37
-108 -85 -28 -45 -30 -55 -28 -129 1 -45 -3 -101 -11 -126 -10 -37 -19 -48
-52 -63 -90 -41 -109 -53 -112 -69 -2 -9 5 -19 17 -23 29 -9 88 -73 111 -120
21 -45 42 -175 30 -189 -5 -5 -52 -12 -104 -15 -55 -3 -100 -11 -108 -19 -20
-20 -44 -14 -57 16 -7 15 -30 54 -52 88 -26 40 -41 77 -45 110 -9 68 -18 80
-66 96 -63 21 -68 38 -25 88 20 24 48 75 63 114 44 116 107 238 133 255 57 39
71 59 71 103 -1 68 -42 132 -138 210 -72 58 -89 68 -123 68 -28 0 -39 4 -39
15 0 28 45 40 102 27 47 -11 54 -11 92 12 22 13 68 45 100 70 33 25 64 46 69
46 5 0 24 -7 41 -15z"/>
<path fill="#ffffff" stroke="none" d="M2410 4065 c14 -7 44 -17 65 -21 48 -8
95 -39 95 -62 0 -31 -38 -80 -82 -106 -33 -19 -60 -50 -107 -121 -71 -109 -86
-144 -77 -182 7 -26 7 -26 -41 -19 -155 22 -148 23 -202 -27 -39 -36 -59 -47
-107 -57 -32 -7 -79 -20 -103 -31 -52 -22 -70 -23 -95 -4 -28 21 -24 83 9 149
44 86 79 122 168 168 60 31 98 60 142 107 216 232 246 251 335 206z"/>
<path fill="#ffffff" stroke="none" d="M449 4041 c53 -27 157 -44 246 -39 41
2 75 2 75 1 0 -1 -13 -24 -30 -50 -16 -26 -30 -55 -30 -65 0 -10 15 -41 34
-68 54 -78 55 -145 6 -254 -18 -39 -21 -60 -17 -99 10 -81 30 -100 133 -127
50 -12 62 -35 36 -70 -28 -37 -46 -36 -115 6 -51 31 -74 38 -128 42 -60 4 -70
7 -99 39 -26 27 -39 33 -64 31 -26 -3 -32 -9 -41 -40 -5 -20 -13 -40 -17 -44
-13 -12 -68 119 -83 200 -17 89 -19 204 -5 291 14 89 52 265 57 265 2 0 21 -9
42 -19z"/>
<path fill="#ffffff" stroke="none" d="M2739 3885 c82 -64 106 -96 123 -158
13 -50 1 -97 -26 -97 -23 0 -73 -65 -111 -145 l-36 -75 -47 0 c-74 0 -123 19
-173 65 -27 25 -64 48 -86 54 -45 12 -67 46 -56 89 3 15 34 70 69 123 48 73
74 103 108 123 25 14 53 40 63 57 17 29 21 30 61 25 32 -4 60 -20 111 -61z"/>
<path fill="#ffffff" stroke="none" d="M1282 3788 c60 -65 118 -84 169 -58 26
14 25 -3 -3 -48 -17 -28 -23 -58 -29 -140 -7 -117 -17 -137 -89 -186 -42 -29
-42 -29 -103 -15 -60 14 -61 15 -75 59 -9 29 -12 71 -8 120 4 61 1 83 -15 119
-10 24 -19 65 -19 92 0 47 1 48 38 59 20 5 44 14 52 20 27 17 51 11 82 -22z"/>
<path fill="#ffffff" stroke="none" d="M1115 3636 c13 -31 15 -54 10 -101 -4
-41 -1 -84 8 -126 9 -37 13 -86 10 -118 l-6 -53 -44 6 c-24 3 -69 13 -99 22
-46 13 -57 21 -69 50 -8 21 -21 34 -32 34 -38 0 -45 14 -33 64 6 27 23 76 39
109 15 34 43 94 61 134 25 55 44 81 79 108 l46 36 6 -63 c4 -35 14 -81 24
-102z"/>
<path fill="#ffffff" stroke="none" d="M3307 3611 c13 -19 27 -50 32 -70 24
-91 26 -84 -25 -120 -48 -35 -94 -112 -94 -160 0 -13 -8 -61 -17 -107 -17 -82
-17 -83 5 -136 12 -29 22 -61 22 -71 0 -20 -65 -65 -100 -69 -23 -3 -25 1 -33
62 -10 84 -46 157 -103 210 -25 23 -42 46 -37 50 4 4 26 13 48 20 67 21 82 35
100 97 12 42 15 74 10 124 -7 70 2 104 43 157 18 23 85 53 112 49 8 -1 25 -17
37 -36z"/>
<path fill="#ffffff" stroke="none" d="M2150 3546 c0 -22 -70 -105 -155 -184
-78 -71 -134 -101 -217 -117 -67 -13 -140 41 -122 89 5 13 67 44 123 61 l24 7
-22 -28 c-23 -29 -20 -38 17 -49 24 -7 25 -3 22 51 -1 28 3 32 42 47 24 9 69
23 101 31 44 11 70 26 107 60 49 46 80 58 80 32z"/>
<path fill="#ffffff" stroke="none" d="M2174 3495 c-29 -109 -102 -245 -132
-245 -13 0 -12 3 3 20 17 19 17 22 3 37 -17 16 -48 12 -48 -7 0 -7 8 -9 21 -5
18 6 19 5 10 -13 -6 -12 -16 -24 -21 -27 -16 -10 -12 -23 8 -28 28 -6 -87 -37
-139 -37 -46 0 -99 16 -99 30 0 3 22 12 48 19 27 6 65 23 85 37 21 14 37 20
37 15 0 -5 -4 -13 -10 -16 -17 -10 -11 -25 10 -25 11 0 20 -5 20 -11 0 -5 4
-7 10 -4 5 3 8 25 7 48 -4 40 -1 44 78 123 45 45 87 95 94 113 21 50 30 36 15
-24z"/>
<path fill="#ffffff" stroke="none" d="M2276 3535 c27 -4 54 -11 59 -15 6 -3
28 -12 51 -18 22 -6 51 -23 63 -36 l23 -25 -61 -30 c-62 -32 -83 -56 -154
-181 -38 -67 -94 -128 -139 -151 -31 -16 -73 -23 -173 -30 -116 -8 -144 -7
-234 11 -110 22 -142 19 -240 -19 l-50 -20 -10 50 c-13 58 -34 104 -64 137
-17 18 -19 27 -11 40 15 23 160 71 237 79 61 5 63 5 64 -18 2 -27 55 -79 79
-79 8 0 32 -12 51 -27 34 -26 44 -28 122 -27 112 0 154 21 207 101 40 61 88
173 99 236 5 25 12 36 20 33 7 -2 34 -8 61 -11z"/>
<path fill="#ffffff" stroke="none" d="M3386 3354 c3 -34 3 -85 -1 -113 -7
-49 -7 -50 -36 -44 -18 3 -29 1 -29 -6 0 -6 4 -11 10 -11 5 0 7 -15 4 -32 l-5
-33 18 33 c23 45 33 40 33 -17 0 -52 -28 -99 -92 -152 l-32 -27 -25 55 c-24
53 -24 58 -12 126 7 40 16 98 21 129 10 70 29 103 83 145 49 37 53 34 63 -53z"/>
<path fill="#ffffff" stroke="none" d="M2570 3395 c30 -8 67 -15 82 -15 15 0
28 -4 28 -9 0 -22 -36 -91 -72 -138 -55 -72 -51 -83 47 -125 25 -11 31 -21 42
-74 8 -42 27 -85 57 -132 26 -39 46 -76 46 -83 0 -9 -20 -10 -77 -5 -201 17
-235 18 -295 7 -36 -6 -91 -22 -124 -35 -107 -43 -104 -43 -104 1 0 38 1 38
86 83 98 50 124 86 124 165 0 25 5 89 11 141 10 93 10 96 -15 141 -14 25 -26
47 -26 49 0 11 98 53 115 49 11 -3 45 -12 75 -20z"/>
<path fill="#ffffff" stroke="none" d="M554 3343 c24 -21 50 -52 56 -70 15
-43 90 -109 137 -122 79 -21 127 -24 209 -11 58 9 91 10 106 3 22 -10 22 -10
3 -20 -40 -22 -192 -47 -280 -48 -80 0 -96 3 -145 28 -65 34 -130 86 -166 132
-23 31 -24 37 -14 77 12 44 26 68 41 68 4 0 28 -17 53 -37z"/>
<path fill="#ffffff" stroke="none" d="M2390 3309 c20 -38 21 -48 11 -179 -5
-76 -15 -151 -23 -166 -23 -49 -163 -120 -393 -200 -204 -72 -400 -98 -552
-74 -78 12 -82 14 -140 69 -70 66 -87 103 -68 149 14 31 76 72 111 72 9 0 62
15 118 34 142 48 143 48 254 26 117 -23 302 -19 386 7 67 21 129 85 200 206
31 53 61 97 66 97 5 0 19 -18 30 -41z"/>
<path fill="#ffffff" stroke="none" d="M774 3263 c33 -20 72 -36 87 -36 24 0
27 -3 18 -20 -13 -22 -10 -26 22 -29 23 -3 24 0 21 40 -4 41 -3 42 25 41 17
-1 21 -3 11 -6 -22 -6 -24 -23 -3 -23 12 0 13 -4 5 -19 -5 -11 -10 -29 -10
-40 0 -19 -6 -21 -68 -21 -120 0 -211 41 -247 111 -8 15 -15 30 -15 34 0 3 21
5 47 5 37 0 61 -8 107 -37z"/>
<path fill="#ffffff" stroke="none" d="M1079 3229 c34 -6 61 -13 61 -16 0 -10
-30 -73 -35 -73 -3 0 -17 7 -30 16 -19 12 -37 15 -70 10 -25 -4 -45 -5 -45 -2
0 23 35 86 45 82 7 -2 40 -10 74 -17z"/>
<path fill="#ffffff" stroke="none" d="M2173 2739 c-4 -4 -59 -33 -122 -65
-63 -31 -139 -72 -168 -91 -95 -61 -153 -76 -283 -76 -122 0 -302 30 -326 55
-10 11 -6 23 24 67 20 30 39 55 42 54 3 0 52 -6 109 -13 177 -22 382 13 615
104 l111 43 3 -35 c2 -19 0 -38 -5 -43z"/>
</g>
<g>
<g>
<path fill="#000000" stroke="none" d="M1937 4671 c-21 -35 -21 -41 -3 -41 8
0 17 -6 19 -12 7 -18 29 12 22 30 -3 8 -5 22 -5 33 0 27 -13 23 -33 -10z"/>
</g>
</g>
<g>
<g>
<path fill="#000000" stroke="none" d="M1550 4575 c-19 -22 -8 -70 15 -70 13
0 21 8 23 23 2 15 -2 22 -12 22 -9 0 -16 4 -16 10 0 5 7 7 15 4 8 -4 15 -2 15
4 0 17 -28 22 -40 7z"/>
<path fill="#ffffff" stroke="none" d="M1575 4530 c3 -5 1 -10 -4 -10 -6 0
-11 5 -11 10 0 6 2 10 4 10 3 0 8 -4 11 -10z"/>
</g>
</g>
<g>
<g>
<path fill="#000000" stroke="none" d="M1913 3953 c-7 -3 -13 -9 -13 -14 0 -6
5 -7 10 -4 6 4 10 -7 10 -27 0 -25 3 -29 10 -18 12 18 13 57 3 63 -5 2 -14 2
-20 0z"/>
</g>
</g>
<g>
<g>
<path fill="#000000" stroke="none" d="M1783 3858 c-2 -5 53 -7 124 -7 141 2
132 7 -20 11 -55 2 -101 0 -104 -4z"/>
</g>
</g>
<g>
<g>
<path fill="#000000" stroke="none" d="M1102 4493 c0 -39 12 -55 35 -46 8 3
13 21 13 44 0 34 -3 39 -24 39 -21 0 -24 -5 -24 -37z"/>
</g>
</g>
<g>
<g>
<path fill="#000000" stroke="none" d="M2137 4463 c-14 -13 -6 -33 13 -33 11
0 20 -5 20 -11 0 -7 -9 -9 -21 -6 -13 3 -19 1 -16 -6 6 -19 36 -20 44 -1 3 9
1 25 -5 35 -9 13 -8 19 1 22 7 3 3 6 -9 6 -11 1 -24 -2 -27 -6z"/>
</g>
</g>
<g>
<g>
<path fill="#000000" stroke="none" d="M2520 4325 c0 -8 5 -15 11 -15 7 0 8
-11 4 -29 -8 -38 12 -51 25 -16 25 67 25 75 -9 75 -21 0 -31 -5 -31 -15z"/>
</g>
</g>
<g>
<g>
<path fill="#000000" stroke="none" d="M737 4273 c-14 -13 -6 -34 16 -43 17
-7 18 -9 5 -9 -21 -1 -25 -21 -4 -21 22 0 39 28 32 55 -6 24 -34 34 -49 18z"/>
<path fill="#ffffff" stroke="none" d="M770 4255 c0 -8 -4 -15 -10 -15 -5 0
-10 7 -10 15 0 8 5 15 10 15 6 0 10 -7 10 -15z"/>
</g>
</g>
<g>
<g>
<path fill="#000000" stroke="none" d="M876 3918 c-20 -28 -20 -38 -2 -38 8 0
17 -6 19 -12 4 -10 8 -10 15 1 9 12 13 12 26 2 9 -7 23 -11 31 -7 22 8 18 37
-5 43 -11 3 -17 9 -15 14 3 4 13 5 22 2 11 -4 14 -3 9 5 -13 21 -42 13 -53
-15 l-11 -28 -1 28 c-1 33 -14 35 -35 5z"/>
<path fill="#ffffff" stroke="none" d="M960 3890 c0 -5 -4 -10 -10 -10 -5 0
-10 5 -10 10 0 6 5 10 10 10 6 0 10 -4 10 -10z"/>
</g>
</g>
<g>
<g>
<path fill="#000000" stroke="none" d="M2862 3468 c-15 -15 -16 -32 -2 -23 6
4 10 -7 10 -24 0 -17 5 -31 10 -31 6 0 10 20 10 45 0 46 -7 54 -28 33z"/>
</g>
</g>
<g>
<g>
<path fill="#000000" stroke="none" d="M2923 3472 c-17 -11 -13 -70 6 -77 30
-12 54 48 29 73 -14 14 -19 14 -35 4z"/>
<path fill="#ffffff" stroke="none" d="M2950 3450 c0 -5 -4 -10 -10 -10 -5 0
-10 5 -10 10 0 6 5 10 10 10 6 0 10 -4 10 -10z"/>
</g>
</g>
<g>
<g>
<path fill="#000000" stroke="none" d="M2162 3827 c-8 -9 -11 -21 -7 -27 4 -6
1 -9 -6 -8 -6 2 -13 -2 -16 -8 -4 -12 45 -26 50 -15 2 3 1 21 -2 40 -5 30 -8
32 -19 18z"/>
</g>
</g>
<g>
<g>
<path fill="#000000" stroke="none" d="M2213 3833 c-18 -6 -17 -70 1 -76 18
-7 36 12 36 39 0 25 -19 43 -37 37z"/>
<path fill="#ffffff" stroke="none" d="M2230 3793 c0 -20 -3 -24 -11 -16 -7 7
-9 19 -6 27 10 24 17 19 17 -11z"/>
</g>
</g>
<g>
<g>
<path fill="#000000" stroke="none" d="M500 3709 c-11 -8 -12 -12 -2 -16 6 -2
12 -16 12 -29 0 -15 4 -23 10 -19 11 7 11 75 0 75 -3 0 -12 -5 -20 -11z"/>
</g>
</g>
<g>
<g>
<path fill="#000000" stroke="none" d="M554 3706 c-11 -29 0 -61 21 -61 16 0
21 8 23 38 3 32 0 37 -18 37 -11 0 -23 -6 -26 -14z"/>
<path fill="#ffffff" stroke="none" d="M590 3685 c0 -8 -4 -17 -10 -20 -6 -4
-10 5 -10 20 0 15 4 24 10 20 6 -3 10 -12 10 -20z"/>
</g>
</g>
<g>
<g>
<path fill="#000000" stroke="none" d="M2540 3715 c-11 -13 -9 -19 11 -36 24
-21 24 -21 2 -15 -27 8 -30 -6 -7 -25 11 -9 20 -10 32 -2 12 7 22 7 34 0 38
-24 68 54 32 84 -12 10 -20 10 -34 1 -12 -7 -21 -8 -25 -2 -9 15 -31 12 -45
-5z"/>
<path fill="#ffffff" stroke="none" d="M2604 3674 c3 -8 2 -12 -4 -9 -6 3 -10
10 -10 16 0 14 7 11 14 -7z"/>
</g>
</g>
<g>
<g>
<path fill="#000000" stroke="none" d="M1242 3613 c-27 -38 -27 -43 -3 -43 11
0 22 -6 24 -12 4 -10 6 -10 6 0 1 15 51 16 51 1 0 -8 4 -8 14 0 14 12 8 72 -8
72 -5 1 -17 -12 -27 -27 -19 -29 -24 -25 -31 21 -3 17 -6 16 -26 -12z"/>
</g>
</g>
<g>
<g>
<path fill="#000000" stroke="none" d="M976 3518 c-20 -28 -20 -38 -2 -38 8 0
17 -6 19 -12 10 -23 24 10 19 42 -5 36 -15 38 -36 8z"/>
</g>
</g>
<g>
<g>
<path fill="#000000" stroke="none" d="M1030 3520 c0 -11 7 -20 15 -20 8 0 15
-5 15 -11 0 -6 -7 -8 -16 -5 -10 4 -14 1 -12 -6 3 -7 13 -13 24 -13 25 0 31
35 8 48 -17 10 -17 11 1 18 17 6 16 8 -7 8 -22 1 -28 -4 -28 -19z"/>
</g>
</g>
<g>
<g>
<path fill="#000000" stroke="none" d="M3075 3204 c-14 -11 -16 -18 -7 -21 6
-3 12 -16 12 -29 0 -13 5 -24 10 -24 6 0 10 20 10 45 0 25 -1 45 -2 45 -2 0
-12 -8 -23 -16z"/>
</g>
</g>
<g>
<g>
<path fill="#000000" stroke="none" d="M3134 3208 c-5 -7 -9 -26 -9 -43 0 -25
4 -30 25 -30 21 0 25 5 26 30 2 29 -11 55 -26 55 -4 0 -12 -6 -16 -12z"/>
</g>
</g>
<g>
<g>
<path fill="#000000" stroke="none" d="M1840 3385 c-9 -10 -9 -15 -1 -15 6 0
11 -11 11 -25 0 -14 5 -25 10 -25 6 0 10 18 10 40 0 42 -9 50 -30 25z"/>
</g>
</g>
<g>
<g>
<path fill="#000000" stroke="none" d="M2057 3203 c-12 -12 -7 -22 8 -17 21 9
19 -10 -5 -31 -32 -29 -24 -35 40 -35 33 0 60 4 60 10 0 6 -5 10 -10 10 -6 0
-6 7 1 19 7 10 9 26 6 35 -9 23 -41 16 -46 -9 -3 -17 -1 -18 13 -6 21 18 20 5
-2 -23 -21 -28 -47 -24 -30 4 17 26 -15 64 -35 43z"/>
</g>
</g>
<g>
<g>
<path fill="#000000" stroke="none" d="M3267 3193 c-7 -13 5 -73 14 -73 5 0 9
18 9 40 0 36 -12 52 -23 33z"/>
</g>
</g>
<g>
<g>
<path fill="#000000" stroke="none" d="M2470 3086 c0 -8 6 -13 13 -11 7 3 13
-4 13 -20 2 -22 -1 -25 -20 -19 -20 6 -20 5 -3 -12 15 -16 19 -17 32 -4 10 11
12 24 7 45 -9 31 -42 48 -42 21z"/>
</g>
</g>
<g>
<g>
<path fill="#000000" stroke="none" d="M2530 3090 c0 -5 7 -10 15 -10 13 0 14
-4 5 -21 -6 -11 -9 -25 -7 -32 2 -7 12 5 21 27 20 48 21 46 -9 46 -14 0 -25
-4 -25 -10z"/>
</g>
</g>
<g>
<g>
<path fill="#000000" stroke="none" d="M490 3285 c-9 -10 -9 -15 -1 -15 6 0
11 -11 11 -25 0 -14 5 -25 10 -25 6 0 10 18 10 40 0 42 -9 50 -30 25z"/>
</g>
</g>
<g>
<g>
<path fill="#000000" stroke="none" d="M554 3289 c-3 -6 -1 -15 6 -19 7 -4 10
-15 7 -24 -3 -8 -2 -18 3 -21 6 -4 10 11 10 34 0 40 -12 53 -26 30z"/>
</g>
</g>
<g>
<g>
<path fill="#000000" stroke="none" d="M1670 2929 c0 -6 7 -9 15 -5 9 3 15 0
15 -8 0 -7 -7 -19 -15 -26 -22 -18 -18 -30 10 -30 14 0 25 5 25 10 0 6 -5 10
-11 10 -8 0 -8 5 1 15 7 8 10 22 6 30 -6 17 -46 21 -46 4z"/>
</g>
</g>
<g>
<g>
<path fill="#000000" stroke="none" d="M1740 2925 c-9 -10 -9 -15 -1 -15 6 0
11 -11 11 -25 0 -14 5 -25 10 -25 6 0 10 18 10 40 0 42 -9 50 -30 25z"/>
</g>
</g>
<g>
<g>
<path fill="#000000" stroke="none" d="M1597 2633 c-12 -12 -7 -22 8 -17 8 4
15 2 15 -4 0 -5 -7 -15 -15 -22 -23 -19 -18 -40 10 -40 25 0 35 15 14 22 -8 3
-8 10 2 26 12 20 12 24 -1 32 -18 12 -24 12 -33 3z"/>
</g>
</g>
<g>
<g>
<path fill="#000000" stroke="none" d="M1662 2631 c-8 -5 -12 -22 -10 -42 2
-26 8 -34 23 -34 17 0 20 7 20 39 0 41 -10 52 -33 37z"/>
<path fill="#ffffff" stroke="none" d="M1690 2595 c0 -8 -4 -17 -10 -20 -6 -4
-10 5 -10 20 0 15 4 24 10 20 6 -3 10 -12 10 -20z"/>
</g>
</g>
</g>
<g>
<g>
<path fill="#000000" stroke="none" d="M467 4813 c-7 -7 2 -54 12 -66 4 -4 7
9 8 28 1 34 -8 51 -20 38z"/>
</g>
</g>
<g>
<g>
<path fill="#000000" stroke="none" d="M570 4779 c0 -24 4 -38 10 -34 6 3 10
22 10 41 0 19 -4 34 -10 34 -5 0 -10 -18 -10 -41z"/>
</g>
</g>
<g>
<g>
<path fill="#000000" stroke="none" d="M2452 4763 l-2 -63 68 2 67 2 -62 3
-62 4 -4 57 -3 57 -2 -62z"/>
</g>
</g>
<g>
<g>
<path fill="#000000" stroke="none" d="M298 4802 c-19 -4 -25 -46 -8 -57 6 -3
10 5 10 19 0 13 6 26 13 29 17 6 5 14 -15 9z"/>
</g>
</g>
<g>
<g>
<path fill="#000000" stroke="none" d="M335 4794 c-20 -20 -19 -31 3 -42 25
-13 42 -4 42 23 0 29 -24 39 -45 19z"/>
<path fill="#ffffff" stroke="none" d="M370 4769 c0 -5 -7 -9 -15 -9 -15 0
-20 12 -9 23 8 8 24 -1 24 -14z"/>
</g>
</g>
<g>
<g>
<path fill="#000000" stroke="none" d="M515 4800 c-4 -6 2 -10 12 -11 14 0 14
-2 -4 -9 -22 -9 -32 -29 -15 -31 4 0 15 -2 25 -4 13 -2 17 3 17 25 0 28 -24
48 -35 30z"/>
</g>
</g>
<g>
<g>
<path fill="#000000" stroke="none" d="M781 4797 c-16 -16 -14 -44 5 -51 22
-9 34 1 34 29 0 26 -22 39 -39 22z"/>
</g>
</g>
<g>
<g>
<path fill="#000000" stroke="none" d="M2639 4794 c-9 -12 -10 -18 -3 -21 6
-2 20 -11 30 -19 18 -14 17 -15 -11 -9 -29 6 -29 6 -12 -12 13 -13 21 -15 34
-7 27 17 27 33 -1 44 -31 11 -35 25 -5 17 13 -3 19 -1 16 6 -6 19 -33 19 -48
1z"/>
</g>
</g>
<g>
<g>
<path fill="#000000" stroke="none" d="M401 4768 c1 -22 3 -26 6 -13 7 31 23
42 23 18 0 -12 5 -25 10 -28 6 -4 10 7 10 24 0 26 -4 31 -25 31 -22 0 -25 -4
-24 -32z"/>
</g>
</g>
<g>
<g>
<path fill="#000000" stroke="none" d="M714 4762 c0 -23 4 -42 9 -42 10 0 40
70 33 78 -3 2 -8 -3 -12 -12 -6 -15 -7 -15 -19 1 -11 14 -12 11 -11 -25z"/>
</g>
</g>
<g>
<g>
<path fill="#000000" stroke="none" d="M2949 4788 c-2 -24 3 -53 10 -61 4 -4
7 9 8 28 1 32 -16 62 -18 33z"/>
</g>
</g>
<g>
<g>
<path fill="#000000" stroke="none" d="M2717 4773 c-13 -12 -7 -41 10 -47 9
-4 23 -1 30 7 8 7 11 21 7 30 -6 17 -35 23 -47 10z"/>
<path fill="#ffffff" stroke="none" d="M2747 4744 c-9 -9 -28 6 -21 18 4 6 10
6 17 -1 6 -6 8 -13 4 -17z"/>
</g>
</g>
<g>
<g>
<path fill="#000000" stroke="none" d="M2781 4748 c1 -22 3 -26 6 -13 7 31 23
42 23 18 0 -12 5 -25 10 -28 6 -4 10 5 10 19 0 35 18 33 22 -1 4 -23 6 -25 12
-10 14 31 0 47 -44 47 -39 0 -40 -1 -39 -32z"/>
</g>
</g>
<g>
<g>
<path fill="#000000" stroke="none" d="M2898 4771 c11 -7 10 -10 -3 -15 -23
-8 -13 -31 13 -32 18 -1 22 4 22 27 0 23 -4 29 -22 29 -17 0 -19 -3 -10 -9z"/>
</g>
</g>
<g>
<g>
<path fill="#000000" stroke="none" d="M2986 4764 c-4 -10 -1 -24 7 -31 19
-19 49 -5 45 21 -4 27 -43 34 -52 10z"/>
<path fill="#ffffff" stroke="none" d="M3021 4747 c-13 -13 -26 -3 -16 12 3 6
11 8 17 5 6 -4 6 -10 -1 -17z"/>
</g>
</g>
<g>
<g>
<path fill="#000000" stroke="none" d="M3060 4765 c0 -8 8 -15 18 -16 15 0 15
-1 -2 -8 -12 -5 -16 -10 -9 -14 14 -9 43 2 43 14 0 5 -7 12 -16 16 -13 5 -13
7 -2 14 9 6 7 9 -9 9 -14 0 -23 -6 -23 -15z"/>
</g>
</g>
<g>
<g>
<path fill="#000000" stroke="none" d="M3120 4756 c0 -29 11 -39 36 -29 16 6
16 7 -2 14 -18 7 -18 8 -1 8 25 1 16 25 -11 29 -18 3 -22 -2 -22 -22z"/>
</g>
</g>
<g>
<g>
<path fill="#000000" stroke="none" d="M3180 4756 c0 -14 5 -28 10 -31 6 -4
10 5 10 19 0 14 5 26 10 26 6 0 10 -11 10 -25 0 -14 5 -25 11 -25 6 0 9 12 7
28 -2 21 -9 28 -30 30 -24 3 -28 0 -28 -22z"/>
</g>
</g>
<g>
<g>
<path fill="#000000" stroke="none" d="M3255 4771 c-3 -6 3 -14 12 -20 17 -10
17 -10 -2 -11 -18 -1 -19 -1 -2 -11 9 -5 22 -7 27 -4 17 10 11 35 -7 36 -15 0
-15 2 2 9 19 8 19 9 -2 9 -12 1 -24 -3 -28 -8z"/>
</g>
</g>
<g>
<g>
<path fill="#000000" stroke="none" d="M3320 4756 c0 -28 28 -42 47 -23 19 19
5 47 -23 47 -19 0 -24 -5 -24 -24z"/>
<path fill="#ffffff" stroke="none" d="M3360 4749 c0 -5 -7 -9 -15 -9 -15 0
-20 12 -9 23 8 8 24 -1 24 -14z"/>
</g>
</g>
<g>
<g>
<path fill="#000000" stroke="none" d="M3391 4748 c1 -30 2 -30 8 -9 4 14 12
26 19 29 17 5 33 -39 20 -55 -7 -9 -7 -13 0 -13 15 0 30 22 37 55 7 29 7 29
-8 10 -15 -18 -16 -18 -17 -2 0 12 -8 17 -30 17 -27 0 -30 -3 -29 -32z"/>
</g>
</g>
<g>
<g>
<path fill="#000000" stroke="none" d="M360 4650 c0 -22 5 -40 10 -40 6 0 10
7 10 15 0 8 7 15 15 15 21 0 19 20 -2 20 -16 1 -16 2 1 15 19 14 19 15 -7 15
-25 0 -27 -3 -27 -40z"/>
</g>
</g>
<g>
<g>
<path fill="#000000" stroke="none" d="M533 4650 c0 -25 2 -35 4 -22 2 12 2
32 0 45 -2 12 -4 2 -4 -23z"/>
</g>
</g>
<g>
<g>
<path fill="#000000" stroke="none" d="M600 4680 c0 -5 -6 -10 -14 -10 -20 0
-37 -25 -30 -44 3 -9 17 -16 30 -16 21 0 24 4 24 40 0 22 -2 40 -5 40 -3 0 -5
-4 -5 -10z"/>
<path fill="#ffffff" stroke="none" d="M590 4626 c-14 -14 -24 0 -16 21 6 15
8 15 16 3 6 -9 5 -19 0 -24z"/>
</g>
</g>
<g>
<g>
<path fill="#000000" stroke="none" d="M430 4641 c0 -17 5 -31 10 -31 6 0 10
11 10 24 0 14 -4 28 -10 31 -6 4 -10 -7 -10 -24z"/>
</g>
</g>
<g>
<g>
<path fill="#000000" stroke="none" d="M464 4656 c-9 -24 4 -48 23 -44 12 2
18 12 18 28 0 29 -32 41 -41 16z"/>
</g>
</g>
<g>
<g>
<path fill="#000000" stroke="none" d="M634 4658 c-4 -6 2 -18 12 -26 16 -13
17 -14 2 -9 -10 4 -18 2 -18 -3 0 -6 11 -10 25 -10 29 0 32 17 8 37 -10 8 -12
12 -5 8 6 -3 12 -1 12 4 0 15 -27 14 -36 -1z"/>
</g>
</g>
<g>
<g>
<path fill="#000000" stroke="none" d="M3171 4548 c0 -33 2 -38 9 -23 7 18 8
19 15 3 4 -10 11 -18 15 -18 5 0 11 8 13 18 4 16 5 16 6 0 0 -10 6 -18 12 -18
14 0 7 72 -7 77 -6 2 -15 -6 -18 -19 l-7 -23 -9 23 c-15 36 -30 25 -29 -20z"/>
</g>
</g>
<g>
<g>
<path fill="#000000" stroke="none" d="M3334 4577 c-8 -21 -1 -60 11 -64 6 -2
10 12 10 32 -2 40 -12 55 -21 32z"/>
</g>
</g>
<g>
<g>
<path fill="#000000" stroke="none" d="M3270 4555 c-17 -20 -5 -45 20 -45 11
0 23 7 26 15 6 15 -11 45 -26 45 -4 0 -13 -7 -20 -15z"/>
<path fill="#ffffff" stroke="none" d="M3300 4535 c0 -8 -4 -15 -10 -15 -5 0
-10 7 -10 15 0 8 5 15 10 15 6 0 10 -7 10 -15z"/>
</g>
</g>
<g>
<g>
<path fill="#000000" stroke="none" d="M3380 4555 c-17 -20 -5 -45 20 -45 11
0 23 7 26 15 6 15 -11 45 -26 45 -4 0 -13 -7 -20 -15z"/>
<path fill="#ffffff" stroke="none" d="M3410 4535 c0 -8 -4 -15 -10 -15 -5 0
-10 7 -10 15 0 8 5 15 10 15 6 0 10 -7 10 -15z"/>
</g>
</g>
<g>
<g>
<path fill="#000000" stroke="none" d="M3440 4540 c0 -16 5 -30 10 -30 6 0 10
8 10 18 0 10 5 23 12 30 9 9 7 12 -10 12 -18 0 -22 -6 -22 -30z"/>
</g>
</g>
<g>
<g>
<path fill="#000000" stroke="none" d="M3170 4345 l0 -65 65 0 65 0 0 65 0 65
-65 0 -65 0 0 -65z"/>
</g>
</g>
<g>
<g>
<path fill="#000000" stroke="none" d="M3364 4369 c-4 -8 0 -9 15 -4 23 7 28
-4 9 -23 -14 -14 0 -16 21 -3 8 5 11 16 8 25 -7 18 -42 22 -53 5z"/>
</g>
</g>
<g>
<g>
<path fill="#000000" stroke="none" d="M3434 4369 c-4 -8 0 -9 15 -4 21 6 30
-8 11 -20 -5 -3 -10 -15 -10 -26 0 -10 5 -19 10 -19 6 0 10 8 10 18 0 10 5 23
11 29 6 6 8 16 5 22 -9 14 -43 14 -52 0z"/>
</g>
</g>
<g>
<g>
<path fill="#000000" stroke="none" d="M3380 4310 c0 -5 5 -10 10 -10 6 0 10
5 10 10 0 6 -4 10 -10 10 -5 0 -10 -4 -10 -10z"/>
</g>
</g>
<g>
<g>
<path fill="#000000" stroke="none" d="M392 2948 c3 -39 5 -43 28 -40 31 3 39
17 31 51 -5 19 -15 27 -35 29 -26 3 -27 2 -24 -40z"/>
<path fill="#ffffff" stroke="none" d="M427 2964 c-3 -3 -12 -4 -19 -1 -8 3
-5 6 6 6 11 1 17 -2 13 -5z"/>
<path fill="#ffffff" stroke="none" d="M435 2930 c-3 -5 -13 -10 -21 -10 -8 0
-14 5 -14 10 0 6 9 10 21 10 11 0 17 -4 14 -10z"/>
</g>
</g>
<g>
<g>
<path fill="#000000" stroke="none" d="M710 2974 c0 -8 5 -12 10 -9 6 3 10 10
10 16 0 5 -4 9 -10 9 -5 0 -10 -7 -10 -16z"/>
</g>
</g>
<g>
<g>
<path fill="#000000" stroke="none" d="M470 2938 c0 -15 5 -28 10 -28 6 0 10
6 10 14 0 8 2 21 5 29 4 8 0 14 -10 14 -10 0 -15 -10 -15 -29z"/>
</g>
</g>
<g>
<g>
<path fill="#000000" stroke="none" d="M520 2955 c-17 -20 -5 -45 20 -45 11 0
23 7 26 15 6 15 -11 45 -26 45 -4 0 -13 -7 -20 -15z"/>
<path fill="#ffffff" stroke="none" d="M550 2935 c0 -8 -4 -15 -10 -15 -5 0
-10 7 -10 15 0 8 5 15 10 15 6 0 10 -7 10 -15z"/>
</g>
</g>
<g>
<g>
<path fill="#000000" stroke="none" d="M590 2955 c-7 -8 -10 -22 -6 -30 6 -16
46 -21 46 -5 0 5 -7 7 -15 4 -9 -4 -15 0 -15 10 0 9 7 16 16 16 8 0 12 5 9 10
-9 14 -21 12 -35 -5z"/>
</g>
</g>
<g>
<g>
<path fill="#000000" stroke="none" d="M655 2961 c-3 -5 3 -12 12 -14 17 -4
17 -5 1 -6 -29 -2 -22 -31 7 -31 20 0 25 5 25 24 0 13 -7 27 -16 30 -20 8 -22
8 -29 -3z"/>
</g>
</g>
<g>
<g>
<path fill="#000000" stroke="none" d="M750 2960 c-13 -9 -12 -12 4 -25 20
-15 20 -15 0 -15 -15 0 -16 -2 -5 -9 8 -5 20 -7 28 -4 15 6 18 33 3 33 -5 0
-7 7 -4 15 7 17 -4 19 -26 5z"/>
</g>
</g>
<g>
<g>
<path fill="#000000" stroke="none" d="M395 2753 c-15 -36 -12 -60 5 -33 8 13
13 13 31 2 11 -7 22 -12 24 -10 6 6 -27 78 -36 78 -5 0 -16 -16 -24 -37z"/>
<path fill="#ffffff" stroke="none" d="M430 2750 c0 -5 -4 -10 -10 -10 -5 0
-10 5 -10 10 0 6 5 10 10 10 6 0 10 -4 10 -10z"/>
</g>
</g>
<g>
<g>
<path fill="#000000" stroke="none" d="M557 2767 c-33 -26 -28 -57 9 -57 21 0
24 4 24 40 0 22 -1 40 -2 40 -2 0 -16 -10 -31 -23z"/>
<path fill="#ffffff" stroke="none" d="M570 2734 c0 -8 -4 -12 -10 -9 -5 3
-10 10 -10 16 0 5 5 9 10 9 6 0 10 -7 10 -16z"/>
</g>
</g>
<g>
<g>
<path fill="#000000" stroke="none" d="M613 2750 c0 -25 2 -35 4 -22 2 12 2
32 0 45 -2 12 -4 2 -4 -23z"/>
</g>
</g>
<g>
<g>
<path fill="#000000" stroke="none" d="M683 2750 c0 -25 2 -35 4 -22 2 12 2
32 0 45 -2 12 -4 2 -4 -23z"/>
</g>
</g>
<g>
<g>
<path fill="#000000" stroke="none" d="M640 2745 c0 -22 5 -35 13 -35 9 0 12
11 9 35 -2 19 -8 35 -13 35 -5 0 -9 -16 -9 -35z"/>
</g>
</g>
<g>
<g>
<path fill="#000000" stroke="none" d="M471 2743 c-1 -29 2 -33 24 -33 22 0
25 4 24 33 -1 27 -2 29 -7 9 -4 -13 -11 -23 -17 -23 -5 0 -13 10 -17 23 -5 20
-6 18 -7 -9z"/>
</g>
</g>
<g>
<g>
<path fill="#000000" stroke="none" d="M714 2755 c-9 -23 3 -45 25 -45 23 0
35 28 20 46 -15 18 -38 18 -45 -1z"/>
<path fill="#ffffff" stroke="none" d="M748 2739 c-2 -6 -8 -10 -13 -10 -5 0
-11 4 -13 10 -2 6 4 11 13 11 9 0 15 -5 13 -11z"/>
</g>
</g>
<g>
<g>
<path fill="#000000" stroke="none" d="M793 2763 c-15 -6 -18 -53 -3 -53 6 0
10 9 10 20 0 27 17 25 23 -2 4 -16 5 -14 4 6 -2 30 -12 38 -34 29z"/>
</g>
</g>
<g>
<g>
<path fill="#000000" stroke="none" d="M2640 2641 c0 -19 23 -71 31 -71 5 0
16 16 24 36 18 43 18 44 6 44 -5 0 -14 -12 -19 -27 l-10 -28 -11 28 c-10 26
-21 36 -21 18z"/>
</g>
</g>
<g>
<g>
<path fill="#000000" stroke="none" d="M2823 2610 c0 -25 2 -35 4 -22 2 12 2
32 0 45 -2 12 -4 2 -4 -23z"/>
</g>
</g>
<g>
<g>
<path fill="#000000" stroke="none" d="M2720 2600 c0 -16 5 -30 10 -30 6 0 10
14 10 30 0 17 -4 30 -10 30 -5 0 -10 -13 -10 -30z"/>
</g>
</g>
<g>
<g>
<path fill="#000000" stroke="none" d="M2755 2620 c-4 -6 1 -18 11 -26 18 -14
18 -14 0 -7 -13 4 -17 3 -12 -5 4 -7 16 -12 27 -12 16 0 19 6 16 28 -4 28 -30
42 -42 22z"/>
</g>
</g>
<g>
<g>
<path fill="#000000" stroke="none" d="M2854 2615 c-8 -21 2 -45 19 -45 8 0
20 7 27 15 10 12 10 18 0 30 -7 8 -19 15 -27 15 -7 0 -16 -7 -19 -15z"/>
<path fill="#ffffff" stroke="none" d="M2888 2599 c-2 -6 -8 -10 -13 -10 -5 0
-11 4 -13 10 -2 6 4 11 13 11 9 0 15 -5 13 -11z"/>
</g>
</g>
<g>
<g>
<path fill="#000000" stroke="none" d="M2920 2600 c0 -16 5 -30 10 -30 6 0 10
12 10 27 0 29 15 22 23 -12 3 -13 5 -9 6 13 1 28 -2 32 -24 32 -21 0 -25 -5
-25 -30z"/>
</g>
</g>
<g>
<g>
<path fill="#000000" stroke="none" d="M210 2535 l0 -65 65 0 65 0 0 65 0 65
-65 0 -65 0 0 -65z"/>
<path fill="#ffffff" stroke="none" d="M330 2535 l0 -55 -55 0 -55 0 0 55 0
55 55 0 55 0 0 -55z"/>
</g>
</g>
<g>
<g>
<path fill="#000000" stroke="none" d="M385 2538 c10 -48 23 -56 36 -22 11 25
13 26 17 9 7 -35 21 -39 32 -10 14 37 7 71 -7 36 -10 -24 -10 -24 -15 -3 -8
28 -24 28 -33 0 l-8 -23 -4 23 c-2 12 -9 22 -14 22 -7 0 -8 -13 -4 -32z"/>
</g>
</g>
<g>
<g>
<path fill="#000000" stroke="none" d="M771 2530 c0 -34 2 -41 10 -30 8 11 12
12 16 3 2 -7 9 -13 14 -13 6 0 5 8 -1 20 -6 11 -8 26 -4 32 5 7 2 9 -9 5 -10
-4 -17 0 -20 11 -3 9 -5 -3 -6 -28z"/>
</g>
</g>
<g>
<g>
<path fill="#000000" stroke="none" d="M890 2560 c0 -5 5 -10 10 -10 6 0 10 5
10 10 0 6 -4 10 -10 10 -5 0 -10 -4 -10 -10z"/>
</g>
</g>
<g>
<g>
<path fill="#000000" stroke="none" d="M494 2536 c-9 -24 4 -48 23 -44 12 2
18 12 18 28 0 29 -32 41 -41 16z"/>
<path fill="#ffffff" stroke="none" d="M517 2508 c-3 -7 -5 -2 -5 12 0 14 2
19 5 13 2 -7 2 -19 0 -25z"/>
</g>
</g>
<g>
<g>
<path fill="#000000" stroke="none" d="M561 2518 c1 -22 3 -26 6 -13 3 11 10
26 15 33 8 9 6 12 -6 12 -12 0 -16 -9 -15 -32z"/>
</g>
</g>
<g>
<g>
<path fill="#000000" stroke="none" d="M600 2520 c0 -16 5 -30 10 -30 6 0 10
12 10 27 0 29 15 22 23 -12 3 -13 5 -9 6 13 1 28 -2 32 -24 32 -21 0 -25 -5
-25 -30z"/>
</g>
</g>
<g>
<g>
<path fill="#000000" stroke="none" d="M670 2520 c0 -16 5 -30 10 -30 6 0 10
14 10 30 0 17 -4 30 -10 30 -5 0 -10 -13 -10 -30z"/>
</g>
</g>
<g>
<g>
<path fill="#000000" stroke="none" d="M704 2535 c-13 -32 24 -63 41 -35 3 6
-1 10 -9 10 -9 0 -16 7 -16 16 0 10 6 14 15 10 8 -3 15 -1 15 4 0 16 -40 11
-46 -5z"/>
</g>
</g>
<g>
<g>
<path fill="#000000" stroke="none" d="M826 2534 c-7 -19 10 -44 29 -44 14 0
27 38 19 52 -9 14 -42 9 -48 -8z"/>
<path fill="#ffffff" stroke="none" d="M860 2520 c0 -11 -2 -20 -4 -20 -2 0
-6 9 -9 20 -3 11 -1 20 4 20 5 0 9 -9 9 -20z"/>
</g>
</g>
<g>
<g>
<path fill="#000000" stroke="none" d="M920 2535 c0 -8 7 -15 15 -15 8 0 15
-4 15 -10 0 -5 -7 -6 -17 -3 -11 4 -14 3 -9 -5 4 -7 13 -12 21 -12 23 0 29 22
11 36 -16 12 -16 13 1 17 12 3 9 5 -9 6 -19 1 -28 -4 -28 -14z"/>
</g>
</g>
<g>
<g>
<path fill="#000000" stroke="none" d="M2450 2395 c0 -36 3 -65 8 -65 4 0 5
27 4 60 l-4 60 56 0 56 0 0 -54 0 -55 -47 -4 -48 -3 53 -2 52 -2 0 65 0 65
-65 0 -65 0 0 -65z"/>
</g>
</g>
<g>
<g>
<path fill="#000000" stroke="none" d="M2640 2430 c0 -24 31 -83 39 -74 11 12
32 76 27 82 -3 2 -11 -9 -19 -25 l-15 -28 -11 28 c-11 27 -21 36 -21 17z"/>
</g>
</g>
<g>
<g>
<path fill="#000000" stroke="none" d="M2720 2430 c0 -5 5 -10 11 -10 5 0 7 5
4 10 -3 6 -8 10 -11 10 -2 0 -4 -4 -4 -10z"/>
</g>
</g>
<g>
<g>
<path fill="#000000" stroke="none" d="M3201 2397 c-1 -30 3 -46 9 -42 12 7
12 42 0 70 -6 15 -9 8 -9 -28z"/>
</g>
</g>
<g>
<g>
<path fill="#000000" stroke="none" d="M3403 2400 c0 -25 2 -35 4 -22 2 12 2
32 0 45 -2 12 -4 2 -4 -23z"/>
</g>
</g>
<g>
<g>
<path fill="#000000" stroke="none" d="M2950 2389 c0 -24 4 -38 10 -34 6 3 10
22 10 41 0 19 -4 34 -10 34 -5 0 -10 -18 -10 -41z"/>
</g>
</g>
<g>
<g>
<path fill="#000000" stroke="none" d="M3297 2423 c-7 -11 4 -73 13 -73 8 0 7
66 -2 75 -3 4 -8 3 -11 -2z"/>
</g>
</g>
<g>
<g>
<path fill="#000000" stroke="none" d="M2759 2409 c-12 -8 -11 -12 4 -23 9 -7
17 -16 17 -19 0 -4 -8 -4 -17 0 -14 5 -16 3 -6 -7 6 -7 19 -10 27 -7 22 9 20
37 -1 38 -16 0 -16 1 1 8 16 6 17 9 4 13 -8 4 -21 2 -29 -3z"/>
</g>
</g>
<g>
<g>
<path fill="#000000" stroke="none" d="M2720 2379 c0 -17 4 -28 10 -24 6 3 10
17 10 31 0 13 -4 24 -10 24 -5 0 -10 -14 -10 -31z"/>
</g>
</g>
<g>
<g>
<path fill="#000000" stroke="none" d="M2823 2386 c2 -23 7 -30 25 -31 18 -1
22 3 22 27 0 15 -4 28 -10 28 -5 0 -10 -9 -10 -20 0 -27 -17 -25 -23 3 -4 15
-5 13 -4 -7z"/>
</g>
</g>
<g>
<g>
<path fill="#000000" stroke="none" d="M2900 2401 c10 -7 11 -11 3 -11 -7 0
-13 -9 -13 -20 0 -15 6 -19 23 -16 33 5 31 50 -3 54 -20 2 -22 1 -10 -7z"/>
</g>
</g>
<g>
<g>
<path fill="#000000" stroke="none" d="M3020 2370 c0 -22 5 -40 10 -40 6 0 10
7 10 16 0 8 4 13 9 10 13 -8 34 21 27 39 -3 8 -17 15 -31 15 -23 0 -25 -4 -25
-40z"/>
<path fill="#ffffff" stroke="none" d="M3060 2385 c0 -8 -4 -15 -10 -15 -5 0
-10 7 -10 15 0 8 5 15 10 15 6 0 10 -7 10 -15z"/>
</g>
</g>
<g>
<g>
<path fill="#000000" stroke="none" d="M3103 2403 c18 -5 18 -5 0 -18 -13 -10
-15 -17 -7 -25 17 -17 44 -1 44 26 0 20 -5 24 -27 23 -19 -1 -22 -3 -10 -6z"/>
</g>
</g>
<g>
<g>
<path fill="#000000" stroke="none" d="M3161 2378 c1 -22 3 -26 6 -13 3 11 10
26 15 33 8 9 6 12 -6 12 -12 0 -16 -9 -15 -32z"/>
</g>
</g>
<g>
<g>
<path fill="#000000" stroke="none" d="M3237 2403 c-13 -12 -7 -41 9 -47 22
-9 34 1 34 30 0 17 -6 24 -18 24 -10 0 -22 -3 -25 -7z"/>
<path fill="#ffffff" stroke="none" d="M3264 2385 c3 -8 1 -15 -4 -15 -6 0
-10 7 -10 15 0 8 2 15 4 15 2 0 6 -7 10 -15z"/>
</g>
</g>
<g>
<g>
<path fill="#000000" stroke="none" d="M3348 2401 c11 -7 10 -10 -3 -15 -23
-8 -13 -31 13 -32 18 -1 22 4 22 27 0 23 -4 29 -22 29 -17 0 -19 -3 -10 -9z"/>
</g>
</g>
<g>
<g>
<path fill="#000000" stroke="none" d="M2988 2383 c7 -3 16 -2 19 1 4 3 -2 6
-13 5 -11 0 -14 -3 -6 -6z"/>
</g>
</g>
<g>
<g>
<path fill="#000000" stroke="none" d="M396 2357 c-22 -16 -18 -55 6 -71 14
-8 22 -7 35 7 17 18 17 18 -9 12 -25 -7 -28 -5 -28 20 0 24 3 26 27 20 23 -5
25 -4 14 9 -16 19 -22 20 -45 3z"/>
</g>
</g>
<g>
<g>
<path fill="#000000" stroke="none" d="M683 2325 c0 -27 2 -38 4 -22 2 15 2
37 0 50 -2 12 -4 0 -4 -28z"/>
</g>
</g>
<g>
<g>
<path fill="#000000" stroke="none" d="M753 2325 c0 -27 2 -38 4 -22 2 15 2
37 0 50 -2 12 -4 0 -4 -28z"/>
</g>
</g>
<g>
<g>
<path fill="#000000" stroke="none" d="M709 2348 c-2 -25 3 -53 12 -62 5 -6 9
6 9 32 0 23 -4 42 -10 42 -5 0 -11 -6 -11 -12z"/>
</g>
</g>
<g>
<g>
<path fill="#000000" stroke="none" d="M466 2324 c-9 -22 17 -49 39 -40 10 3
15 15 13 28 -4 29 -42 37 -52 12z"/>
<path fill="#ffffff" stroke="none" d="M501 2307 c-13 -13 -26 -3 -16 12 3 6
11 8 17 5 6 -4 6 -10 -1 -17z"/>
</g>
</g>
<g>
<g>
<path fill="#000000" stroke="none" d="M536 2323 c-4 -9 -2 -21 3 -26 5 -5 7
-16 4 -24 -4 -11 0 -14 18 -11 20 2 25 10 27 41 3 33 1 37 -21 37 -14 0 -28
-7 -31 -17z"/>
<path fill="#ffffff" stroke="none" d="M570 2315 c0 -8 -4 -15 -10 -15 -5 0
-10 7 -10 15 0 8 5 15 10 15 6 0 10 -7 10 -15z"/>
</g>
</g>
<g>
<g>
<path fill="#000000" stroke="none" d="M611 2308 c2 -31 2 -31 6 -5 5 31 23
37 23 8 0 -11 5 -23 10 -26 6 -4 10 7 10 24 0 26 -4 31 -25 31 -22 0 -25 -4
-24 -32z"/>
</g>
</g>
<g>
<g>
<path fill="#000000" stroke="none" d="M784 2325 c-8 -21 2 -45 19 -45 21 0
38 25 31 44 -8 20 -43 21 -50 1z"/>
<path fill="#ffffff" stroke="none" d="M820 2309 c0 -5 -7 -9 -15 -9 -15 0
-20 12 -9 23 8 8 24 -1 24 -14z"/>
</g>
</g>
<g>
<g>
<path fill="#000000" stroke="none" d="M850 2309 c0 -17 4 -28 10 -24 6 3 10
15 10 26 0 29 18 23 23 -8 4 -26 4 -26 6 5 1 28 -2 32 -24 32 -21 0 -25 -5
-25 -31z"/>
</g>
</g>
<g>
<g>
<path fill="#000000" stroke="none" d="M2640 2211 c0 -19 23 -71 31 -71 9 0
39 59 39 75 0 16 -18 1 -27 -22 l-10 -28 -11 28 c-11 26 -22 36 -22 18z"/>
</g>
</g>
<g>
<g>
<path fill="#000000" stroke="none" d="M2950 2180 c0 -22 5 -40 10 -40 6 0 10
18 10 40 0 22 -4 40 -10 40 -5 0 -10 -18 -10 -40z"/>
</g>
</g>
<g>
<g>
<path fill="#000000" stroke="none" d="M3483 2180 c0 -25 2 -35 4 -22 2 12 2
32 0 45 -2 12 -4 2 -4 -23z"/>
</g>
</g>
<g>
<g>
<path fill="#000000" stroke="none" d="M3020 2176 c0 -22 5 -36 13 -36 15 0
15 62 -1 68 -8 2 -12 -10 -12 -32z"/>
</g>
</g>
<g>
<g>
<path fill="#000000" stroke="none" d="M2754 2188 c-4 -6 1 -17 10 -24 16 -12
16 -13 -1 -17 -12 -3 -9 -5 10 -6 28 -1 39 23 15 32 -10 4 -10 6 0 6 17 1 5
21 -13 21 -8 0 -17 -5 -21 -12z"/>
</g>
</g>
<g>
<g>
<path fill="#000000" stroke="none" d="M2821 2173 c-1 -29 2 -33 24 -33 21 0
25 5 25 31 0 17 -4 28 -10 24 -5 -3 -10 -15 -10 -26 0 -29 -18 -23 -23 9 -4
25 -4 25 -6 -5z"/>
</g>
</g>
<g>
<g>
<path fill="#000000" stroke="none" d="M2895 2190 c-3 -5 0 -10 7 -10 8 0 6
-5 -5 -11 -23 -13 -13 -29 19 -29 26 0 33 27 12 48 -15 15 -25 15 -33 2z"/>
</g>
</g>
<g>
<g>
<path fill="#000000" stroke="none" d="M3067 2193 c-4 -3 -7 -17 -7 -30 0 -27
34 -33 44 -7 10 25 -20 55 -37 37z"/>
<path fill="#ffffff" stroke="none" d="M3087 2158 c-3 -8 -6 -5 -6 6 -1 11 2
17 5 13 3 -3 4 -12 1 -19z"/>
</g>
</g>
<g>
<g>
<path fill="#000000" stroke="none" d="M3126 2193 c-10 -10 -7 -53 4 -53 6 0
10 9 10 20 0 28 20 25 21 -2 0 -22 1 -22 11 2 11 25 11 25 15 3 6 -33 25 -28
21 4 -3 23 -8 27 -39 29 -21 2 -40 0 -43 -3z"/>
</g>
</g>
<g>
<g>
<path fill="#000000" stroke="none" d="M3231 2156 c0 -22 3 -35 6 -28 2 6 14
12 24 12 31 0 22 55 -8 56 -20 1 -23 -3 -22 -40z"/>
<path fill="#ffffff" stroke="none" d="M3262 2165 c0 -5 -5 -11 -11 -13 -6 -2
-11 4 -11 13 0 9 5 15 11 13 6 -2 11 -8 11 -13z"/>
</g>
</g>
<g>
<g>
<path fill="#000000" stroke="none" d="M3301 2183 c-12 -24 1 -46 25 -41 13 2
19 12 19 28 0 30 -30 39 -44 13z"/>
<path fill="#ffffff" stroke="none" d="M3338 2168 c-6 -18 -28 -21 -28 -4 0 9
7 16 16 16 9 0 14 -5 12 -12z"/>
</g>
</g>
<g>
<g>
<path fill="#000000" stroke="none" d="M3370 2166 l0 -31 15 29 c18 35 18 33
0 33 -10 0 -15 -10 -15 -31z"/>
</g>
</g>
<g>
<g>
<path fill="#000000" stroke="none" d="M3415 2191 c-3 -6 2 -11 12 -11 17 -1
17 -1 1 -11 -26 -15 -22 -29 8 -29 22 0 25 4 22 27 -3 28 -31 43 -43 24z"/>
</g>
</g>
<g>
<g>
<path fill="#000000" stroke="none" d="M210 2125 l0 -65 65 0 66 0 -3 63 -3
62 -62 3 -63 3 0 -66z"/>
</g>
</g>
<g>
<g>
<path fill="#000000" stroke="none" d="M2720 2165 c0 -14 5 -25 10 -25 6 0 10
11 10 25 0 14 -4 25 -10 25 -5 0 -10 -11 -10 -25z"/>
</g>
</g>
<g>
<g>
<path fill="#000000" stroke="none" d="M2985 2170 c-3 -5 1 -10 10 -10 9 0 13
5 10 10 -3 6 -8 10 -10 10 -2 0 -7 -4 -10 -10z"/>
</g>
</g>
<g>
<g>
<path fill="#000000" stroke="none" d="M390 2121 c0 -31 4 -41 21 -46 12 -4
26 -2 32 4 8 8 5 11 -11 11 -12 0 -22 5 -22 10 0 6 7 10 15 10 24 0 17 20 -7
21 -21 1 -21 2 -3 6 36 9 41 23 7 23 -31 0 -32 -2 -32 -39z"/>
</g>
</g>
<g>
<g>
<path fill="#000000" stroke="none" d="M683 2120 c0 -25 2 -35 4 -22 2 12 2
32 0 45 -2 12 -4 2 -4 -23z"/>
</g>
</g>
<g>
<g>
<path fill="#000000" stroke="none" d="M637 2143 c-7 -11 4 -63 13 -63 9 0 8
56 -2 65 -3 3 -8 3 -11 -2z"/>
</g>
</g>
<g>
<g>
<path fill="#000000" stroke="none" d="M1415 2139 c-33 -5 -105 -13 -160 -18
-115 -12 -141 -18 -210 -54 -28 -14 -69 -30 -91 -36 -22 -6 -119 -50 -215 -98
-143 -72 -178 -94 -194 -122 -11 -18 -43 -59 -71 -90 -33 -38 -54 -71 -58 -95
-4 -20 -16 -57 -26 -81 -35 -82 -100 -326 -100 -377 0 -52 24 -116 46 -125 13
-5 37 -68 49 -130 13 -66 87 -96 206 -87 43 4 112 2 155 -5 44 -6 130 -13 193
-16 62 -2 129 -9 148 -16 20 -6 58 -9 86 -6 45 4 56 10 87 45 19 22 54 49 77
61 57 28 73 63 72 153 0 110 -14 138 -74 162 -113 44 -134 55 -149 78 -36 56
9 88 123 88 36 0 107 7 156 15 50 9 134 15 187 16 83 0 111 -5 190 -31 131
-44 141 -56 114 -134 -15 -45 -7 -83 25 -112 24 -22 24 -36 0 -58 -11 -10 -22
-28 -25 -41 -4 -16 -33 -40 -91 -75 -47 -28 -90 -60 -96 -72 -13 -24 -32 -22
-158 12 -82 22 -86 22 -145 6 -90 -25 -202 -81 -220 -109 -14 -21 -26 -25 -80
-29 -45 -3 -82 -13 -128 -36 -138 -68 -187 -176 -131 -285 23 -45 83 -107 126
-128 21 -11 76 -58 121 -103 86 -88 150 -126 211 -126 20 0 55 -10 78 -22 39
-20 55 -21 231 -19 104 1 197 6 207 12 10 5 44 9 76 9 96 1 225 67 388 200
106 86 146 109 200 116 96 12 351 64 410 84 33 11 78 25 101 30 118 28 268
188 291 310 10 48 9 57 -8 79 -15 18 -18 32 -13 55 16 68 1 103 -106 246 -39
52 -90 136 -114 185 -50 102 -94 152 -143 161 -24 5 -38 15 -50 38 -28 55
-104 155 -135 178 -16 13 -56 47 -88 76 -59 54 -175 111 -256 127 -25 4 -56
23 -91 55 -55 51 -101 70 -164 70 -20 0 -62 11 -92 26 -49 22 -77 26 -224 34
-112 6 -181 6 -206 -1 -25 -7 -49 -7 -70 0 -52 15 -108 19 -172 10z"/>
<path fill="#ffffff" stroke="none" d="M1549 2119 c24 -5 62 -25 85 -44 l41
-34 0 -150 0 -150 -100 6 c-88 5 -105 9 -144 34 -25 16 -51 29 -59 29 -9 0
-23 7 -33 16 -10 9 -39 20 -65 25 -32 6 -86 34 -165 85 -66 42 -119 78 -119
80 0 6 102 56 135 66 16 5 75 14 130 19 55 6 125 14 155 18 79 12 90 12 139 0z"/>
<path fill="#ffffff" stroke="none" d="M1872 2111 c137 -8 165 -13 214 -35
l57 -26 -6 -38 c-5 -28 -1 -45 13 -67 11 -17 20 -38 20 -47 0 -9 -31 -55 -70
-101 l-70 -84 -152 5 c-84 2 -162 9 -172 14 -18 10 -19 20 -13 160 l6 150 -29
26 c-36 32 -37 39 -7 45 35 7 43 7 209 -2z"/>
<path fill="#ffffff" stroke="none" d="M2280 2023 c71 -37 78 -50 57 -105 -12
-30 -32 -55 -66 -81 -55 -42 -58 -43 -90 -18 -23 17 -23 19 -7 42 22 31 20 58
-4 84 -17 18 -19 30 -14 64 6 38 9 41 39 41 18 0 56 -12 85 -27z"/>
<path fill="#ffffff" stroke="none" d="M1087 1925 c96 -61 146 -87 180 -92 42
-7 48 -12 51 -35 6 -46 -24 -52 -119 -22 -94 30 -125 28 -222 -12 l-62 -26
-73 42 c-73 42 -92 66 -92 113 0 14 11 28 29 37 91 48 157 80 166 80 6 0 70
-38 142 -85z"/>
<path fill="#ffffff" stroke="none" d="M2380 1925 c0 -63 -79 -241 -109 -247
-9 -2 -54 2 -101 9 -47 6 -93 12 -102 12 -26 1 -22 11 32 70 l49 53 27 -21
c15 -11 32 -21 39 -21 7 0 35 18 63 40 35 28 56 55 68 85 19 50 34 59 34 20z"/>
<path fill="#ffffff" stroke="none" d="M2540 1884 c58 -24 102 -51 141 -87 32
-29 71 -62 87 -75 17 -12 51 -53 75 -90 75 -114 79 -98 -37 -170 -56 -34 -125
-85 -153 -112 l-52 -49 -6 57 c-11 99 -33 158 -83 224 -47 62 -48 63 -119 78
-40 8 -72 20 -71 25 1 6 14 37 29 69 16 33 34 84 40 113 11 48 15 53 38 53 15
0 65 -16 111 -36z"/>
<path fill="#ffffff" stroke="none" d="M736 1859 c7 -43 18 -52 129 -115 l37
-20 -40 -47 c-22 -25 -43 -56 -47 -67 -5 -16 -15 -20 -54 -20 -39 0 -56 -6
-93 -36 -47 -36 -47 -36 -225 -63 -59 -9 -64 -2 -38 48 8 16 19 51 25 77 8 36
24 62 63 104 29 31 59 70 68 86 16 30 122 94 155 94 8 0 16 -17 20 -41z"/>
<path fill="#ffffff" stroke="none" d="M1419 1768 c12 -7 21 -15 21 -19 0 -14
-217 -111 -325 -145 -68 -21 -128 -46 -140 -58 -27 -27 -93 -139 -101 -171
-12 -47 73 -177 135 -210 16 -8 52 -17 82 -20 30 -4 93 -13 142 -22 l87 -15 0
-42 c0 -49 -19 -90 -43 -94 -14 -3 -16 0 -7 22 7 19 6 29 -6 41 -24 24 -72 18
-131 -16 -52 -30 -59 -31 -134 -26 -72 5 -81 8 -103 34 -14 17 -44 35 -68 42
-70 20 -249 114 -266 139 -26 40 -10 121 38 191 22 34 38 61 35 61 -4 0 1 7 9
16 9 8 16 21 16 28 0 7 9 25 21 40 18 22 28 26 75 26 51 0 56 2 72 32 47 87
120 140 235 168 42 11 55 10 134 -15 95 -29 120 -26 142 21 9 20 14 22 35 14
14 -5 34 -15 45 -22z"/>
<path fill="#ffffff" stroke="none" d="M1680 1716 c42 -10 45 -13 48 -48 2
-26 -2 -42 -15 -53 -77 -67 -95 -77 -136 -80 -23 -1 -74 -5 -113 -10 -50 -5
-73 -4 -78 4 -10 16 -41 14 -115 -9 -36 -11 -100 -26 -141 -35 -90 -19 -146
-49 -177 -94 -32 -47 -29 -74 12 -120 45 -49 123 -84 257 -111 59 -13 106 -26
103 -30 -2 -4 -48 1 -102 11 -54 10 -118 20 -143 24 -25 3 -59 14 -76 24 -37
22 -114 134 -114 165 0 24 40 105 77 154 29 38 51 49 186 91 54 17 140 52 190
77 51 26 103 50 117 54 31 9 159 1 220 -14z"/>
<path fill="#ffffff" stroke="none" d="M2120 1679 c262 -33 320 -45 351 -75
52 -49 89 -136 101 -234 7 -55 8 -97 2 -108 -5 -10 -38 -45 -74 -78 l-65 -59
-8 65 c-4 35 -14 78 -23 94 -24 52 -115 147 -197 208 -84 62 -106 68 -181 47
-36 -10 -42 -8 -119 37 -50 29 -98 49 -124 52 -45 5 -46 8 -28 69 5 16 145 9
365 -18z"/>
<path fill="#ffffff" stroke="none" d="M1841 1595 c19 -9 57 -29 84 -45 54
-32 85 -36 133 -19 31 11 102 -3 102 -19 0 -4 17 -18 38 -31 34 -23 136 -121
173 -168 24 -30 40 -84 42 -146 2 -60 -8 -78 -62 -110 l-31 -18 0 101 c0 117
-13 156 -67 197 -28 22 -49 28 -111 32 -61 5 -88 13 -132 38 -72 41 -187 86
-278 108 -40 9 -74 21 -77 25 -3 5 12 19 32 31 21 13 40 27 41 31 6 14 78 9
113 -7z"/>
<path fill="#ffffff" stroke="none" d="M1369 1505 c-8 -8 -77 -28 -154 -44
-77 -16 -158 -35 -180 -43 -81 -27 -81 -103 -1 -156 62 -42 89 -51 179 -61 88
-10 131 -23 143 -42 5 -8 0 -10 -17 -6 -13 3 -53 11 -89 18 -117 21 -198 49
-242 82 -55 42 -68 77 -45 120 28 52 74 75 202 103 65 13 125 29 134 34 9 5
32 10 51 10 30 0 33 -2 19 -15z"/>
<path fill="#ffffff" stroke="none" d="M614 1455 c-65 -105 -72 -119 -78 -157
-4 -22 -2 -57 4 -79 10 -37 16 -42 123 -95 61 -31 132 -63 158 -70 26 -8 52
-21 59 -29 18 -22 2 -20 -107 15 -79 25 -109 30 -196 30 -56 0 -129 -5 -162
-10 -58 -10 -61 -9 -82 15 -19 22 -23 38 -23 94 0 37 4 81 10 97 5 16 21 68
35 117 26 86 27 87 58 88 18 0 75 8 127 18 52 9 97 16 99 14 2 -1 -9 -23 -25
-48z"/>
<path fill="#ffffff" stroke="none" d="M3010 1484 c18 -16 50 -65 75 -118 24
-50 61 -113 82 -140 36 -47 36 -49 13 -43 -14 4 -47 7 -74 7 -47 0 -52 3 -105
58 -59 62 -72 68 -204 98 -43 9 -80 20 -82 24 -2 4 24 24 57 46 34 21 80 51
102 66 54 35 96 35 136 2z"/>
<path fill="#ffffff" stroke="none" d="M2195 1274 c37 -78 -48 -204 -138 -204
-32 0 -57 27 -36 41 8 5 21 9 30 9 25 0 106 76 113 106 5 17 0 40 -14 68 -11
23 -20 46 -20 51 0 16 49 -37 65 -71z"/>
<path fill="#ffffff" stroke="none" d="M2756 1336 c27 -8 69 -17 94 -21 60
-10 75 -18 145 -85 l60 -57 80 -6 c91 -8 102 -17 156 -124 26 -51 29 -67 22
-90 -8 -22 -18 -29 -49 -35 -59 -11 -120 1 -163 32 -61 45 -97 60 -141 60 -46
0 -80 14 -80 33 0 24 -71 117 -103 134 -21 11 -67 19 -132 22 l-100 6 69 73
c38 39 74 72 81 72 6 0 34 -6 61 -14z"/>
<path fill="#ffffff" stroke="none" d="M2244 1325 c48 -36 56 -64 56 -191 0
-107 -2 -123 -20 -139 -22 -20 -82 -13 -61 8 14 14 15 54 1 59 -7 2 -3 20 9
48 40 91 38 116 -17 223 -6 12 12 7 32 -8z"/>
<path fill="#ffffff" stroke="none" d="M2231 1263 c25 -76 -10 -170 -78 -210
-37 -21 -53 -25 -98 -21 -58 5 -71 10 -61 27 4 6 16 6 36 0 58 -21 139 25 171
95 23 51 24 97 2 139 -14 29 -14 31 0 19 9 -8 21 -30 28 -49z"/>
<path fill="#ffffff" stroke="none" d="M2770 1161 c25 -12 90 -96 90 -117 0
-24 41 -47 91 -50 57 -5 71 -11 147 -62 49 -33 59 -36 127 -36 61 -1 78 -5 95
-22 19 -18 20 -25 9 -75 -6 -30 -24 -75 -41 -101 -30 -48 -110 -128 -128 -128
-14 0 -12 41 5 89 21 60 7 84 -74 123 -81 38 -146 46 -189 24 -56 -29 -86 -21
-150 37 -32 28 -94 80 -138 115 -78 62 -79 63 -132 58 -29 -3 -82 -15 -117
-28 -35 -12 -67 -19 -71 -15 -10 9 22 43 65 69 20 11 62 48 94 81 l59 59 116
-4 c65 -3 128 -10 142 -17z"/>
<path fill="#ffffff" stroke="none" d="M1392 1099 c9 -42 0 -139 -16 -160 -6
-9 -30 -26 -53 -37 -23 -12 -54 -37 -68 -56 -27 -36 -58 -56 -49 -32 3 8 0 17
-5 21 -6 3 -9 11 -6 16 4 5 -1 9 -9 9 -9 0 -16 -7 -16 -15 0 -8 5 -15 10 -15
6 0 10 -5 10 -11 0 -5 -5 -7 -12 -3 -8 5 -9 2 -5 -9 4 -11 1 -17 -9 -17 -8 0
-12 5 -9 10 3 6 1 10 -4 10 -7 0 -7 7 1 20 11 17 10 22 -2 30 -8 5 -12 11 -10
13 3 2 26 20 51 40 27 22 57 37 73 37 14 0 34 8 44 18 20 20 37 96 26 113 -8
14 25 61 39 56 6 -2 15 -19 19 -38z"/>
<path fill="#ffffff" stroke="none" d="M782 1021 c97 -30 201 -51 258 -51 18
0 66 16 106 36 60 29 76 34 93 24 30 -16 26 -27 -26 -76 -73 -67 -170 -129
-186 -116 -13 11 -263 88 -397 122 -46 12 -122 24 -167 27 -46 3 -84 10 -84
14 -8 42 8 47 178 48 120 1 142 -2 225 -28z"/>
<path fill="#ffffff" stroke="none" d="M2214 1035 c3 -9 0 -15 -10 -15 -8 0
-13 -4 -10 -9 8 -13 -152 -24 -188 -13 -16 4 -32 14 -34 22 -4 10 1 11 19 6
59 -18 114 -17 149 2 44 24 66 26 74 7z"/>
<path fill="#ffffff" stroke="none" d="M2545 990 c4 -6 48 -42 98 -79 51 -38
108 -85 126 -105 39 -40 85 -47 131 -21 51 29 161 6 237 -51 l26 -20 -17 -51
c-10 -29 -16 -67 -14 -84 2 -27 -2 -35 -27 -50 -16 -10 -47 -21 -67 -24 l-38
-7 0 45 c0 46 -18 77 -45 77 -7 0 -38 -12 -70 -26 -48 -22 -65 -25 -108 -20
-71 10 -92 24 -174 114 -66 73 -74 86 -88 149 -18 78 -34 93 -103 93 -20 0
-46 7 -56 15 -18 14 -18 15 10 26 70 28 167 38 179 19z"/>
<path fill="#ffffff" stroke="none" d="M1980 982 c0 -5 -42 -49 -92 -99 -89
-87 -193 -154 -254 -164 -37 -7 -27 16 11 27 41 11 60 27 122 101 55 66 213
166 213 135z"/>
<path fill="#ffffff" stroke="none" d="M2227 967 c11 -10 7 -15 -21 -25 -39
-14 -53 -41 -37 -71 9 -16 6 -23 -13 -38 -12 -10 -49 -56 -80 -103 -168 -249
-224 -326 -256 -352 -45 -35 -112 -48 -253 -48 -151 0 -279 34 -357 94 -30 24
-65 48 -77 55 -52 27 -51 141 2 191 14 13 25 34 25 47 0 20 5 23 34 23 28 0
34 -4 38 -25 3 -14 -3 -37 -13 -54 -10 -16 -25 -53 -34 -83 -15 -51 -15 -54 5
-70 28 -23 122 -57 190 -70 30 -5 102 -8 160 -6 183 7 247 56 356 271 99 196
143 249 234 278 31 10 81 3 97 -14z"/>
<path fill="#ffffff" stroke="none" d="M655 935 c167 -44 339 -97 350 -108 13
-12 -212 -2 -270 13 -23 6 -83 7 -141 4 -84 -5 -107 -4 -138 11 -41 20 -51 34
-61 86 l-6 35 83 -7 c46 -4 128 -19 183 -34z"/>
<path fill="#ffffff" stroke="none" d="M2034 974 c13 -5 7 -16 -27 -55 -23
-26 -74 -110 -112 -186 -118 -231 -193 -288 -380 -287 -49 0 -117 6 -150 14
-96 20 -191 68 -173 86 3 2 31 -9 64 -26 74 -38 237 -59 311 -41 141 36 234
131 264 272 9 42 24 65 91 140 83 91 85 93 112 83z"/>
<path fill="#ffffff" stroke="none" d="M2342 930 c19 -11 51 -20 75 -20 54 0
67 -15 82 -89 11 -55 19 -68 88 -143 94 -103 118 -119 191 -125 50 -5 68 -1
121 22 65 30 78 27 81 -15 5 -64 3 -67 -62 -89 -35 -11 -103 -27 -153 -36 -49
-9 -100 -19 -113 -22 -21 -5 -22 -3 -16 21 9 39 -16 70 -93 112 -108 59 -115
64 -105 77 11 14 4 77 -9 77 -14 0 -23 -24 -11 -28 13 -4 17 -52 5 -52 -5 0
-32 33 -62 73 -30 39 -83 97 -118 127 -34 30 -63 63 -63 73 0 11 15 25 43 37
55 24 79 24 119 0z"/>
<path fill="#ffffff" stroke="none" d="M1140 843 c0 -5 -7 -16 -14 -26 -10
-13 -21 -16 -42 -11 l-27 7 22 19 c23 18 61 25 61 11z"/>
<path fill="#ffffff" stroke="none" d="M2290 753 c25 -28 63 -74 86 -104 33
-45 59 -65 140 -109 100 -56 112 -69 100 -114 -5 -19 -14 -24 -55 -29 -67 -8
-113 -33 -228 -126 -99 -79 -191 -141 -211 -141 -6 0 -20 14 -32 31 -22 30
-22 31 -5 75 9 24 35 72 58 106 l41 61 -17 47 c-22 63 -21 125 3 179 28 61 26
78 -15 102 -19 12 -35 25 -35 31 0 5 16 26 35 45 l35 35 28 -20 c15 -11 48
-42 72 -69z"/>
<path fill="#ffffff" stroke="none" d="M1815 753 c-9 -50 -50 -131 -83 -166
-15 -16 -54 -43 -87 -60 -58 -31 -64 -32 -175 -31 -120 2 -194 21 -249 63
l-24 18 22 47 c13 25 26 46 31 46 4 0 21 -7 36 -15 39 -20 93 -19 161 5 32 10
90 24 128 30 49 7 96 23 155 54 47 24 87 44 89 45 2 0 0 -16 -4 -36z"/>
<path fill="#ffffff" stroke="none" d="M2138 723 c40 -26 42 -33 20 -77 -28
-55 -35 -143 -14 -184 22 -42 20 -75 -5 -98 -28 -24 -79 -137 -79 -173 0 -16
9 -36 20 -46 11 -10 20 -21 20 -25 0 -16 -83 -40 -135 -40 -29 0 -66 -5 -82
-11 -15 -7 -105 -14 -200 -16 -154 -4 -176 -2 -220 16 -26 10 -70 22 -97 25
-49 6 -133 46 -160 75 -13 15 -13 24 0 81 8 36 23 76 33 90 l19 24 112 -28
c104 -27 120 -29 245 -23 193 9 212 20 334 202 92 137 154 225 158 225 2 0 16
-8 31 -17z"/>
</g>
<g>
<g>
<path fill="#000000" stroke="none" d="M1401 2026 c-18 -22 -10 -70 13 -74 25
-5 40 13 31 35 -5 10 -9 24 -9 32 -1 20 -21 24 -35 7z"/>
<path fill="#ffffff" stroke="none" d="M1430 2016 c0 -3 -4 -8 -10 -11 -5 -3
-10 -1 -10 4 0 6 5 11 10 11 6 0 10 -2 10 -4z"/>
<path fill="#ffffff" stroke="none" d="M1430 1980 c0 -5 -4 -10 -10 -10 -5 0
-10 5 -10 10 0 6 5 10 10 10 6 0 10 -4 10 -10z"/>
</g>
</g>
<g>
<g>
<path fill="#000000" stroke="none" d="M1866 1975 c-21 -32 -20 -38 8 -51 30
-14 36 -4 29 44 -6 38 -15 40 -37 7z"/>
</g>
</g>
<g>
<g>
<path fill="#000000" stroke="none" d="M2180 2031 c0 -6 5 -13 10 -16 6 -3 10
-11 10 -16 0 -6 -4 -7 -10 -4 -5 3 -10 1 -10 -4 0 -6 7 -11 15 -11 10 0 15 10
15 30 0 20 -5 30 -15 30 -8 0 -15 -4 -15 -9z"/>
</g>
</g>
<g>
<g>
<path fill="#000000" stroke="none" d="M2270 1970 c0 -5 5 -10 10 -10 6 0 5
-8 -2 -20 -15 -23 -6 -35 19 -25 13 5 14 9 5 12 -10 4 -10 8 -2 19 7 7 9 18 5
24 -8 13 -35 13 -35 0z"/>
</g>
</g>
<g>
<g>
<path fill="#000000" stroke="none" d="M2217 1943 c-5 -9 10 -53 18 -53 3 0 5
14 5 30 0 28 -13 40 -23 23z"/>
</g>
</g>
<g>
<g>
<path fill="#000000" stroke="none" d="M898 1923 c-3 -4 -4 -24 -4 -43 1 -30
4 -35 26 -35 23 0 25 4 25 40 0 33 -4 41 -22 43 -11 2 -23 0 -25 -5z"/>
<path fill="#ffffff" stroke="none" d="M930 1870 c0 -5 -4 -10 -10 -10 -5 0
-10 5 -10 10 0 6 5 10 10 10 6 0 10 -4 10 -10z"/>
</g>
</g>
<g>
<g>
<path fill="#000000" stroke="none" d="M2136 1774 c-10 -25 -7 -34 9 -34 8 0
15 -5 15 -11 0 -6 -7 -8 -16 -5 -10 4 -14 1 -12 -6 7 -20 37 -21 45 -2 3 9 1
25 -6 35 -7 13 -8 19 0 19 5 0 7 5 4 10 -9 15 -32 12 -39 -6z"/>
</g>
</g>
<g>
<g>
<path fill="#000000" stroke="none" d="M2560 1735 c0 -8 4 -15 10 -15 5 0 7
-13 4 -30 -5 -23 -3 -30 9 -30 8 0 17 10 20 23 3 12 9 32 12 45 7 20 4 22 -24
22 -21 0 -31 -5 -31 -15z"/>
</g>
</g>
<g>
<g>
<path fill="#000000" stroke="none" d="M578 1718 c-7 -19 2 -38 18 -38 8 0 14
-4 14 -10 0 -5 -7 -7 -15 -4 -8 4 -15 1 -15 -6 0 -6 10 -10 23 -8 18 2 22 9
22 38 0 28 -4 36 -21 38 -12 2 -24 -3 -26 -10z"/>
<path fill="#ffffff" stroke="none" d="M606 1693 c-10 -10 -19 5 -10 18 6 11
8 11 12 0 2 -7 1 -15 -2 -18z"/>
</g>
</g>
<g>
<g>
<path fill="#000000" stroke="none" d="M705 1351 c-3 -6 0 -11 7 -11 7 0 14
-11 14 -24 1 -17 -2 -23 -12 -19 -8 3 -14 1 -14 -5 0 -14 24 -22 39 -13 18 12
10 75 -11 79 -9 2 -19 -2 -23 -7z"/>
</g>
</g>
<g>
<g>
<path fill="#000000" stroke="none" d="M765 1350 c-3 -5 -3 -11 2 -11 4 -1 13
-2 18 -4 6 -1 14 -3 19 -3 5 -1 -3 -11 -18 -23 -14 -11 -26 -25 -26 -30 0 -12
47 -12 55 1 3 6 -2 10 -11 10 -16 0 -16 1 1 20 9 10 15 26 12 35 -7 17 -42 20
-52 5z"/>
</g>
</g>
<g>
<g>
<path fill="#000000" stroke="none" d="M1463 1663 c-22 -8 -14 -25 7 -18 11 3
20 2 20 -3 0 -5 -9 -17 -20 -27 -27 -24 -25 -35 5 -35 14 0 25 5 25 10 0 6 -5
10 -12 10 -9 0 -9 3 0 12 26 26 7 62 -25 51z"/>
</g>
</g>
<g>
<g>
<path fill="#000000" stroke="none" d="M1541 1656 c-12 -14 -12 -19 -2 -26 9
-5 10 -10 2 -14 -6 -4 -11 -2 -11 4 0 6 -4 8 -10 5 -16 -10 -12 -19 14 -31 30
-14 35 -5 26 45 -5 31 -6 33 -19 17z"/>
</g>
</g>
<g>
<g>
<path fill="#000000" stroke="none" d="M2290 1569 c0 -6 6 -9 14 -6 9 4 13 -4
14 -25 1 -24 -3 -28 -16 -23 -13 5 -14 4 -5 -6 19 -19 40 5 35 41 -3 21 -10
30 -23 30 -11 0 -19 -5 -19 -11z"/>
</g>
</g>
<g>
<g>
<path fill="#000000" stroke="none" d="M2360 1565 c-9 -10 -9 -15 -1 -15 6 0
11 -11 11 -25 0 -14 5 -25 10 -25 6 0 10 18 10 40 0 42 -9 50 -30 25z"/>
</g>
</g>
<g>
<g>
<path fill="#000000" stroke="none" d="M2047 1483 c-12 -12 -7 -22 8 -17 8 4
15 2 15 -4 0 -5 -7 -15 -15 -22 -23 -19 -18 -40 10 -40 14 0 25 5 25 10 0 6
-5 10 -10 10 -6 0 -6 7 1 19 20 31 -10 69 -34 44z"/>
</g>
</g>
<g>
<g>
<path fill="#000000" stroke="none" d="M2105 1481 c-3 -6 1 -11 10 -11 11 0
15 -5 11 -15 -3 -8 -1 -15 4 -15 6 0 10 -5 10 -11 0 -6 -9 -8 -20 -4 -24 8
-27 -10 -3 -19 26 -10 44 14 35 49 -9 30 -35 45 -47 26z"/>
</g>
</g>
<g>
<g>
<path fill="#000000" stroke="none" d="M372 1278 c-7 -7 -8 -16 -3 -22 5 -6
11 -22 14 -36 2 -15 5 -5 6 23 1 51 1 53 -17 35z"/>
</g>
</g>
<g>
<g>
<path fill="#000000" stroke="none" d="M427 1283 c-13 -12 -7 -71 7 -76 30
-12 50 45 24 71 -14 14 -22 15 -31 5z"/>
<path fill="#ffffff" stroke="none" d="M450 1243 c0 -20 -3 -24 -11 -16 -7 7
-9 19 -6 27 10 24 17 19 17 -11z"/>
</g>
</g>
<g>
<g>
<path fill="#000000" stroke="none" d="M2890 1435 c-9 -10 -9 -15 -1 -15 6 0
11 -11 11 -25 0 -14 5 -25 10 -25 6 0 10 18 10 40 0 42 -9 50 -30 25z"/>
</g>
</g>
<g>
<g>
<path fill="#000000" stroke="none" d="M2947 1443 c-14 -13 -6 -34 16 -43 17
-7 18 -9 5 -9 -25 -1 -23 -21 2 -21 21 0 37 38 26 65 -5 15 -37 21 -49 8z"/>
<path fill="#ffffff" stroke="none" d="M2980 1420 c0 -5 -2 -10 -4 -10 -3 0
-8 5 -11 10 -3 6 -1 10 4 10 6 0 11 -4 11 -10z"/>
</g>
</g>
<g>
<g>
<path fill="#000000" stroke="none" d="M2945 1120 c-10 -11 -13 -20 -7 -20 7
0 12 -9 12 -19 0 -11 5 -23 10 -26 6 -4 10 12 10 39 0 25 -2 46 -3 46 -2 0
-12 -9 -22 -20z"/>
</g>
</g>
<g>
<g>
<path fill="#000000" stroke="none" d="M3004 1126 c-3 -8 -4 -27 -2 -43 2 -20
8 -28 23 -28 16 0 20 7 22 35 2 43 -30 70 -43 36z"/>
<path fill="#ffffff" stroke="none" d="M3030 1080 c0 -5 -5 -10 -11 -10 -5 0
-7 5 -4 10 3 6 8 10 11 10 2 0 4 -4 4 -10z"/>
</g>
</g>
<g>
<g>
<path fill="#000000" stroke="none" d="M2242 1033 c2 -17 9 -28 18 -28 9 0 16
11 18 28 3 22 -1 27 -18 27 -17 0 -21 -5 -18 -27z"/>
<path fill="#ffffff" stroke="none" d="M2270 1035 c0 -8 -4 -15 -10 -15 -5 0
-10 7 -10 15 0 8 5 15 10 15 6 0 10 -7 10 -15z"/>
</g>
</g>
<g>
<g>
<path fill="#000000" stroke="none" d="M2812 938 c-15 -15 -16 -32 -2 -23 6 4
10 -7 10 -25 0 -18 4 -29 10 -25 12 7 14 85 2 85 -4 0 -13 -5 -20 -12z"/>
</g>
</g>
<g>
<g>
<path fill="#000000" stroke="none" d="M2860 940 c0 -5 7 -10 15 -10 13 0 14
-4 5 -21 -6 -11 -9 -28 -7 -37 3 -15 5 -14 11 3 4 11 12 28 17 37 15 28 11 38
-16 38 -14 0 -25 -4 -25 -10z"/>
</g>
</g>
<g>
<g>
<path fill="#000000" stroke="none" d="M1043 953 c-22 -8 -14 -25 8 -18 18 6
19 5 10 -13 -6 -12 -16 -24 -21 -27 -18 -11 -10 -25 15 -25 14 0 25 5 25 10 0
6 -5 10 -10 10 -6 0 -6 7 1 19 7 10 9 26 6 35 -7 16 -13 18 -34 9z"/>
</g>
</g>
<g>
<g>
<path fill="#000000" stroke="none" d="M977 943 c-11 -10 -8 -25 3 -18 6 4 10
-7 10 -25 0 -18 4 -29 10 -25 15 10 12 75 -3 75 -8 0 -17 -3 -20 -7z"/>
</g>
</g>
<g>
<g>
<path fill="#000000" stroke="none" d="M2693 723 c-16 -6 -17 -33 -2 -33 5 0
7 -4 4 -10 -3 -5 -2 -17 3 -26 8 -14 10 -13 14 7 6 33 -5 67 -19 62z"/>
</g>
</g>
<g>
<g>
<path fill="#000000" stroke="none" d="M2744 716 c-3 -8 -4 -27 -2 -43 2 -20
8 -28 23 -28 16 0 20 7 22 35 2 43 -30 70 -43 36z"/>
</g>
</g>
<g>
<g>
<path fill="#000000" stroke="none" d="M1680 440 c-14 -9 -7 -15 14 -11 5 1 6
-5 3 -14 -4 -8 -2 -15 3 -15 6 0 10 -5 10 -11 0 -6 -9 -8 -20 -4 -24 8 -27
-10 -3 -19 24 -9 35 7 31 44 -3 36 -15 45 -38 30z"/>
</g>
</g>
<g>
<g>
<path fill="#000000" stroke="none" d="M1744 436 c-3 -8 -4 -27 -2 -43 2 -20
8 -28 23 -28 26 0 32 33 8 50 -17 14 -17 14 0 15 10 0 15 5 12 10 -9 15 -35
12 -41 -4z"/>
<path fill="#ffffff" stroke="none" d="M1770 390 c0 -5 -2 -10 -4 -10 -3 0 -8
5 -11 10 -3 6 -1 10 4 10 6 0 11 -4 11 -10z"/>
</g>
</g>
<g>
<g>
<path fill="#000000" stroke="none" d="M460 935 c-9 -10 -9 -15 -1 -15 6 0 11
-11 11 -25 0 -14 5 -25 10 -25 6 0 10 18 10 40 0 42 -9 50 -30 25z"/>
</g>
</g>
<g>
<g>
<path fill="#000000" stroke="none" d="M520 935 c-9 -10 -9 -15 -1 -15 6 0 11
-11 11 -25 0 -14 5 -25 10 -25 6 0 10 18 10 40 0 42 -9 50 -30 25z"/>
</g>
</g>
<g>
<g>
<path fill="#000000" stroke="none" d="M2470 685 c-9 -11 -10 -19 -2 -27 6 -6
8 -17 5 -25 -4 -11 0 -14 18 -11 20 2 24 9 24 38 0 39 -23 52 -45 25z"/>
<path fill="#ffffff" stroke="none" d="M2500 670 c0 -5 -2 -10 -4 -10 -3 0 -8
5 -11 10 -3 6 -1 10 4 10 6 0 11 -4 11 -10z"/>
</g>
</g>
<g>
<g>
<path fill="#000000" stroke="none" d="M2260 471 c0 -6 6 -8 14 -5 9 4 14 -3
14 -20 0 -15 -6 -26 -14 -26 -8 0 -14 -5 -14 -11 0 -6 10 -9 23 -7 18 2 22 9
22 38 -1 28 -5 36 -23 38 -12 2 -22 -1 -22 -7z"/>
</g>
</g>
<g>
<g>
<path fill="#000000" stroke="none" d="M2332 467 c11 -9 14 -18 7 -28 -11 -18
-12 -39 0 -39 5 0 11 10 14 23 2 12 8 30 12 40 6 14 2 17 -21 17 -26 -1 -27
-2 -12 -13z"/>
</g>
</g>
<g>
<g>
<path fill="#000000" stroke="none" d="M1427 623 c-14 -13 -6 -24 13 -18 11 3
20 4 20 2 0 -2 -9 -14 -20 -27 -26 -30 -25 -40 5 -40 14 0 25 5 25 10 0 6 -5
10 -10 10 -6 0 -6 7 1 19 20 31 -10 69 -34 44z"/>
</g>
</g>
<g>
<g>
<path fill="#000000" stroke="none" d="M1494 618 c-25 -40 2 -97 31 -67 10 10
12 23 7 43 -9 33 -26 44 -38 24z"/>
<path fill="#ffffff" stroke="none" d="M1520 570 c0 -5 -4 -10 -10 -10 -5 0
-10 5 -10 10 0 6 5 10 10 10 6 0 10 -4 10 -10z"/>
</g>
</g>
<g>
<g>
<path fill="#000000" stroke="none" d="M1664 218 c-5 -8 -2 -9 9 -5 22 8 23
-16 2 -33 -23 -19 -18 -30 13 -30 20 0 23 3 13 9 -12 8 -12 12 -2 25 7 9 11
23 7 31 -6 18 -32 20 -42 3z"/>
</g>
</g>
<g>
<g>
<path fill="#000000" stroke="none" d="M1724 215 c-10 -26 5 -65 25 -65 22 0
34 36 20 62 -12 22 -37 24 -45 3z"/>
<path fill="#ffffff" stroke="none" d="M1760 191 c0 -11 -4 -23 -10 -26 -6 -4
-10 5 -10 19 0 14 5 26 10 26 6 0 10 -9 10 -19z"/>
</g>
</g>
</g>
<g>
<g>
<path fill="#000000" stroke="none" d="M465 2131 c-9 -9 -5 -51 5 -51 6 0 10
9 10 20 0 28 20 25 21 -2 0 -22 1 -22 11 2 11 25 11 25 15 3 6 -33 25 -28 21
4 -3 25 -7 28 -41 28 -21 1 -40 -1 -42 -4z"/>
</g>
</g>
<g>
<g>
<path fill="#000000" stroke="none" d="M571 2127 c-13 -17 -6 -43 14 -51 18
-6 38 18 33 41 -4 23 -31 28 -47 10z"/>
<path fill="#ffffff" stroke="none" d="M602 2105 c0 -5 -5 -11 -11 -13 -6 -2
-11 4 -11 13 0 9 5 15 11 13 6 -2 11 -8 11 -13z"/>
</g>
</g>
<g>
<g>
<path fill="#000000" stroke="none" d="M717 2134 c-4 -4 -7 -18 -7 -31 0 -18
5 -23 26 -23 22 0 25 4 22 27 -3 27 -26 41 -41 27z"/>
<path fill="#ffffff" stroke="none" d="M748 2109 c-2 -6 -8 -10 -13 -10 -5 0
-11 4 -13 10 -2 6 4 11 13 11 9 0 15 -5 13 -11z"/>
</g>
</g>
<g>
<g>
<path fill="#000000" stroke="none" d="M780 2109 c0 -16 5 -29 10 -29 6 0 10
9 10 20 0 27 17 25 23 -2 4 -16 5 -13 4 7 -2 24 -7 30 -24 31 -19 1 -23 -4
-23 -27z"/>
</g>
</g>
<g>
<g>
<path fill="#000000" stroke="none" d="M2820 1985 l0 -65 65 0 65 0 0 65 0 65
-65 0 -65 0 0 -65z"/>
</g>
</g>
<g>
<g>
<path fill="#000000" stroke="none" d="M3012 2018 c-25 -25 -4 -78 32 -78 10
0 36 32 36 45 0 17 -27 45 -44 45 -6 0 -17 -5 -24 -12z"/>
<path fill="#ffffff" stroke="none" d="M3058 1987 c4 -21 -27 -35 -38 -17 -12
19 0 42 19 38 9 -2 17 -11 19 -21z"/>
</g>
</g>
<g>
<g>
<path fill="#000000" stroke="none" d="M3090 1986 c0 -30 4 -45 10 -41 11 7 8
70 -3 82 -4 3 -7 -15 -7 -41z"/>
</g>
</g>
<g>
<g>
<path fill="#000000" stroke="none" d="M3126 2014 c-9 -24 -7 -62 4 -69 6 -3
10 0 10 8 0 8 3 29 6 46 7 32 -9 44 -20 15z"/>
</g>
</g>
<g>
<g>
<path fill="#000000" stroke="none" d="M3287 2013 c-7 -7 2 -54 12 -66 4 -4 7
9 8 28 1 34 -8 51 -20 38z"/>
</g>
</g>
<g>
<g>
<path fill="#000000" stroke="none" d="M3169 1999 c-11 -7 -10 -9 5 -9 19 0
19 0 1 -13 -22 -17 -12 -37 15 -30 13 3 20 14 20 28 0 26 -20 38 -41 24z"/>
</g>
</g>
<g>
<g>
<path fill="#000000" stroke="none" d="M3373 2003 c-18 -6 -16 -50 2 -57 8 -3
21 2 29 10 24 24 1 58 -31 47z"/>
<path fill="#ffffff" stroke="none" d="M3400 1975 c0 -8 -7 -15 -15 -15 -16 0
-20 12 -8 23 11 12 23 8 23 -8z"/>
</g>
</g>
<g>
<g>
<path fill="#000000" stroke="none" d="M3448 2003 c-12 -3 -18 -14 -18 -34 0
-18 4 -28 10 -24 6 3 10 15 10 26 0 29 18 23 23 -8 4 -27 4 -26 6 4 1 35 -5
42 -31 36z"/>
</g>
</g>
<g>
<g>
<path fill="#000000" stroke="none" d="M3223 1984 c-7 -19 20 -49 36 -40 17
11 13 26 -4 20 -10 -4 -15 0 -15 11 0 11 5 15 15 11 8 -3 15 -1 15 4 0 16 -40
11 -47 -6z"/>
</g>
</g>
<g>
<g>
<path fill="#000000" stroke="none" d="M3332 1970 c0 -19 2 -27 5 -17 2 9 2
25 0 35 -3 9 -5 1 -5 -18z"/>
</g>
</g>
<g>
<g>
<path fill="#000000" stroke="none" d="M1770 1330 c0 -5 7 -7 15 -4 17 7 21
-11 5 -21 -5 -3 -15 -15 -20 -26 -10 -17 -7 -19 20 -19 16 0 30 5 30 10 0 6
-7 10 -17 10 -15 0 -15 2 1 19 10 11 15 25 11 30 -8 14 -45 14 -45 1z"/>
</g>
</g>
<g>
<g>
<path fill="#000000" stroke="none" d="M1834 1326 c-3 -8 -4 -25 -2 -38 4 -31
42 -32 46 0 2 15 -2 22 -12 22 -9 0 -16 5 -16 11 0 6 7 9 15 5 8 -3 15 -1 15
4 0 16 -40 12 -46 -4z"/>
<path fill="#ffffff" stroke="none" d="M1870 1290 c0 -5 -4 -10 -10 -10 -5 0
-10 5 -10 10 0 6 5 10 10 10 6 0 10 -4 10 -10z"/>
</g>
</g>
<g>
<g>
<path fill="#000000" stroke="none" d="M1425 1291 c-3 -6 1 -11 9 -11 10 0 13
-6 10 -15 -4 -8 -1 -15 6 -15 6 0 8 -5 5 -11 -4 -6 -13 -8 -21 -5 -8 3 -14 1
-14 -3 0 -13 25 -20 38 -12 18 11 10 75 -10 79 -9 2 -19 -2 -23 -7z"/>
</g>
</g>
<g>
<g>
<path fill="#000000" stroke="none" d="M1495 1290 c-3 -5 0 -10 7 -10 7 0 14
-11 14 -25 2 -22 -1 -25 -19 -19 -19 6 -20 5 -8 -9 21 -26 53 -4 45 31 -11 43
-25 55 -39 32z"/>
</g>
</g>
<g>
<g>
<path fill="#000000" stroke="none" d="M1733 1203 c-21 -8 -14 -25 7 -18 26 8
26 -7 0 -30 -11 -10 -17 -22 -14 -26 7 -12 44 -11 44 1 0 6 -5 10 -10 10 -6 0
-6 7 1 19 7 10 9 26 6 35 -7 16 -13 18 -34 9z"/>
</g>
</g>
<g>
<g>
<path fill="#000000" stroke="none" d="M1789 1194 c-11 -14 -10 -19 11 -37 16
-13 19 -18 8 -14 -10 4 -18 3 -18 -2 0 -16 13 -20 31 -10 21 11 25 49 7 67
-16 16 -23 15 -39 -4z"/>
<path fill="#ffffff" stroke="none" d="M1820 1180 c0 -5 -4 -10 -10 -10 -5 0
-10 5 -10 10 0 6 5 10 10 10 6 0 10 -4 10 -10z"/>
</g>
</g>
<g>
<g>
<path fill="#000000" stroke="none" d="M1600 1100 c-12 -8 -10 -10 9 -10 20 0
21 -2 11 -15 -9 -10 -9 -15 -1 -15 6 0 11 -5 11 -11 0 -6 -9 -8 -22 -3 -20 6
-21 5 -10 -9 22 -26 43 -9 40 31 -3 38 -14 47 -38 32z"/>
</g>
</g>
<g>
<g>
<path fill="#000000" stroke="none" d="M1667 1103 c-4 -3 -7 -15 -7 -26 0 -13
5 -17 15 -13 9 3 15 0 15 -10 0 -10 -6 -14 -15 -10 -8 3 -15 1 -15 -3 0 -15
27 -20 39 -8 16 16 14 35 -6 46 -17 10 -17 10 0 11 10 0 15 5 12 10 -7 11 -28
13 -38 3z"/>
</g>
</g>
<g>
<g>
<path fill="#000000" stroke="none" d="M1460 1009 c0 -6 7 -9 15 -5 22 8 18
-14 -7 -41 l-21 -23 34 0 c24 0 30 3 20 9 -12 8 -12 12 -2 25 7 9 11 23 7 31
-6 17 -46 21 -46 4z"/>
</g>
</g>
<g>
<g>
<path fill="#000000" stroke="none" d="M1532 1007 c11 -9 14 -18 7 -28 -11
-18 -12 -39 0 -39 5 0 11 10 14 23 2 12 8 30 12 40 6 14 2 17 -21 17 -26 -1
-27 -2 -12 -13z"/>
</g>
</g>
</g>
</svg>
