<?xml version="1.0" encoding="UTF-8" standalone="no"?>
<!-- Created with Inkscape (http://www.inkscape.org/) -->

<svg
   xmlns:dc="http://purl.org/dc/elements/1.1/"
   xmlns:cc="http://creativecommons.org/ns#"
   xmlns:rdf="http://www.w3.org/1999/02/22-rdf-syntax-ns#"
   xmlns:svg="http://www.w3.org/2000/svg"
   xmlns="http://www.w3.org/2000/svg"
   xmlns:sodipodi="http://sodipodi.sourceforge.net/DTD/sodipodi-0.dtd"
   xmlns:inkscape="http://www.inkscape.org/namespaces/inkscape"
   id="svg2985"
   version="1.1"
   inkscape:version="0.48.2 r9819"
   width="350"
   height="492"
   sodipodi:docname="inner-final.svg">
  <sodipodi:namedview
     pagecolor="#ffffff"
     bordercolor="#666666"
     borderopacity="1"
     objecttolerance="10000"
     gridtolerance="10"
     guidetolerance="10"
     inkscape:pageopacity="0"
     inkscape:pageshadow="2"
     inkscape:window-width="1920"
     inkscape:window-height="1086"
     id="namedview2987"
     showgrid="false"
     inkscape:zoom="52.758824"
     inkscape:cx="212.01713"
     inkscape:cy="127.93565"
     inkscape:window-x="-8"
     inkscape:window-y="-8"
     inkscape:window-maximized="1"
     inkscape:current-layer="svg2985"
     inkscape:snap-global="true"
     inkscape:object-paths="false"
     inkscape:snap-midpoints="false"
     inkscape:snap-grids="false"
     inkscape:snap-to-guides="false"
     inkscape:snap-nodes="true"
     inkscape:snap-intersection-paths="false"
     inkscape:object-nodes="true" />
  <metadata
     id="metadata2991">
    <rdf:RDF>
      <cc:Work
         rdf:about="">
        <dc:format>image/svg+xml</dc:format>
        <dc:type
           rdf:resource="http://purl.org/dc/dcmitype/StillImage" />
        <dc:title />
      </cc:Work>
    </rdf:RDF>
  </metadata>
  <defs
     id="defs2989" />
  <path
     id="path3132"
     d="m 294.1283,321.66388 c 0,2.08416 0,4.52588 0,6.23726"
     style="fill:none;stroke:#000000;stroke-width:1px;stroke-linecap:butt;stroke-linejoin:miter;stroke-opacity:1" />
  <path
     id="path3130"
     d="m 109.14267,301.16008 c -0.7205,1.16379 1.92043,4.14278 1.70239,4.57885 -0.25174,0.50349 -1.49571,0.54096 -1.81612,1.02157 -1.59566,2.3935 -4.07736,4.18197 -5.44835,6.92395 -0.40039,0.80077 0.17721,2.29217 0,3.17821 -0.25918,1.29591 -1.02276,3.06112 -0.56754,4.42678 0.38804,1.16412 2.70761,7.56164 4.19978,8.05903 1.83459,0.61153 3.84182,1.91219 5.22134,3.29171 1.83759,1.83759 3.96038,4.45638 6.12939,5.90239 2.40313,1.60208 6.84382,2.39477 9.53462,3.29171 1.58705,0.52901 4.03022,-0.19282 5.56187,0.11351"
     style="fill:none;stroke:#000000;stroke-width:1px;stroke-linecap:butt;stroke-linejoin:miter;stroke-opacity:1"
     inkscape:connector-curvature="0"
     sodipodi:nodetypes="ccssssssssc" />
  <path
     id="path3128"
     d="m 31.991166,277.21133 c 0.572059,0.0657 1.686344,-0.10035 2.25616,-0.0189 1.381933,0.19742 2.760257,0.82346 4.174092,1.0591 4.400552,0.73343 7.310436,-0.61588 11.587779,0.8099 1.318746,0.43958 4.594502,0.2694 5.980789,0.6853 0.905553,0.27167 1.640004,1.10737 2.429695,1.3706 1.106541,0.36884 2.356843,0.47411 3.551093,0.87219 1.34921,0.44974 1.663989,1.3438 3.052695,1.8067 1.766993,0.589 4.108674,0.082 5.918489,0.6853 0.313299,0.10443 1.49715,0.40593 1.806696,0.5607 0.872465,0.43623 2.45714,0.10136 3.239594,0.623 0.833743,0.55583 1.871333,1.49613 2.803495,1.86899 0.833115,0.33325 1.91832,0.16305 2.803495,0.3738 1.429647,0.3404 2.463687,1.18087 3.800293,1.6821 1.601688,0.60063 3.480415,0.77084 5.23319,1.1214 1.615392,0.32308 3.259111,1.21097 4.859389,1.7444 0.37351,0.1245 0.98564,-0.0367 1.3083,0.1246 0.5288,0.26439 0.89659,2.11952 0.7476,2.49199"
     style="fill:none;stroke:#000000;stroke-width:1px;stroke-linecap:butt;stroke-linejoin:miter;stroke-opacity:1"
     inkscape:connector-curvature="0"
     sodipodi:nodetypes="cssssssscssscssscc" />
  <path
     id="path3126"
     d="m 89.694223,277.56618 c -1.061056,-0.12802 -2.286686,0.21381 -3.301894,-0.1246 -1.47158,-0.49052 -1.664306,-1.7177 -3.613393,-2.36739 -1.780843,-0.59362 -5.385679,-0.32837 -7.289087,-0.8722 -3.373381,-0.96383 -4.958065,-1.24379 -8.161284,-2.6166 -1.302238,-0.5581 -3.382316,-0.899 -4.797092,-1.37059 -1.837005,-0.61234 -4.911021,0.1869 -6.790687,0.1869 -2.728907,0 -4.93881,0.33823 -7.662886,0.1869 -2.086415,-0.11592 -4.351423,-0.0475 -6.416888,0.1246 -3.823968,0.31866 -7.508705,1.86899 -11.338579,1.86899"
     style="fill:none;stroke:#000000;stroke-width:1px;stroke-linecap:butt;stroke-linejoin:miter;stroke-opacity:1" />
  <path
     id="path3124"
     d="m 86.267729,204.48842 c -1.583145,1.66896 -3.252285,3.51648 -4.734791,5.29549 -2.190827,2.62899 -3.587995,7.07295 -7.039887,8.22358 -3.65577,1.21859 -8.083128,0.0855 -11.525478,1.8067 -0.984798,0.4924 -1.222177,2.77967 -1.931297,3.48879 -0.533492,0.5335 -1.423395,1.0987 -1.868996,1.4329 -0.458244,0.23925 -0.645071,1.02181 -0.809899,1.5575 -0.221498,0.71987 0.110107,1.98418 -0.311499,2.61659 -1.438326,2.15749 -2.437163,4.64341 -3.800293,6.91529 -0.865599,1.44267 -3.275412,2.35025 -3.800293,3.92489 -0.870493,2.61148 -1.794971,7.00104 -0.436099,9.71879 0.805476,1.61095 -1.472967,4.90979 1.245997,8.53508 1.273213,1.69762 3.762842,1.5806 5.35779,2.49199 1.592471,0.90999 3.123347,2.68057 4.983991,3.0527 0.631374,0.12627 1.611402,-0.15456 2.180496,0.1869 1.47145,0.88287 2.921442,2.33292 4.360992,3.05269 0.901396,0.4507 1.93876,0.39789 2.865795,0.8099 0.815878,0.36261 1.512124,1.09871 2.305095,1.4952 0.614975,0.30749 1.66666,0.23365 2.367396,0.3738 1.218325,0.24366 2.087051,1.1214 3.177294,1.5575 0.683735,0.27349 1.573846,0.10621 2.242796,0.37379 1.49519,0.59808 2.850766,2.66606 3.114994,3.9872"
     style="fill:none;stroke:#000000;stroke-width:1px;stroke-linecap:butt;stroke-linejoin:miter;stroke-opacity:1" />
  <path
     id="path3122"
     d="m 31.365373,228.63094 c 1.36637,-0.47377 3.169775,-0.0651 4.56405,-0.34397 1.92401,-0.3848 3.808439,-1.5342 5.793889,-1.93129 0.89365,-0.17873 1.853184,-0.0272 2.741195,-0.2492 2.149616,-0.53741 4.212844,-1.24263 6.416888,-1.5575 2.869266,-0.40989 6.323631,-0.1869 9.220383,-0.1869"
     style="fill:none;stroke:#000000;stroke-width:1px;stroke-linecap:butt;stroke-linejoin:miter;stroke-opacity:1"
     inkscape:connector-curvature="0"
     sodipodi:nodetypes="ccsssc" />
  <path
     sodipodi:nodetypes="csccsccsc"
     inkscape:connector-curvature="0"
     d="m 98.66541,230.46752 c 9.13394,-1.33802 18.08785,-4.49081 27.03815,-6.72839 1.85695,-0.46424 5.13228,-2.84204 6.97758,-0.99679 0.64224,1.2105 0.73526,1.78241 1.70871,2.44727 0.73182,0.27356 2.07808,-0.48386 3.66713,-0.23943 4.46375,0.68659 12.06116,-1.96145 20.29198,-1.96145 m -23.95911,2.20088 c -0.53729,0.075 -1.51056,0.387 -2.02021,0.60542 -4.68778,2.00905 -13.45012,6.28116 -18.37846,5.29549"
     style="fill:none;stroke:#000000;stroke-width:1px;stroke-linecap:butt;stroke-linejoin:miter;stroke-opacity:1"
     id="path3106" />
  <path
     id="path3104"
     d="m 131.93354,261.30596 c -0.52002,0.0391 -1.0179,-0.0525 -1.30829,-0.5607 -1.299,-2.27324 -2.51382,-3.3507 -5.17089,-4.23639 -1.98354,-0.66118 -4.51688,0.23877 -6.54149,-0.4361 -3.39579,-1.13192 -7.26385,-0.89914 -10.84018,-1.49519 -1.66071,-0.27679 -2.9484,-1.4847 -3.73799,-1.6821 -2.465,-0.61625 -4.72347,-1.79537 -6.60379,-3.67569 -1.70711,-1.70711 -3.20739,-1.17947 -3.987195,-4.2987 -0.65951,-2.63804 -1.481233,-4.38892 -0.186899,-6.97758 0.27919,-0.55838 0.93515,-0.37445 1.370594,-0.8099 4.37174,-4.37174 12.10975,-4.01582 17.81777,-5.91849 0.91866,-0.30622 2.44424,0.10521 2.80349,-0.3738"
     style="fill:none;stroke:#000000;stroke-width:1px;stroke-linecap:butt;stroke-linejoin:miter;stroke-opacity:1" />
  <path
     id="path3102"
     d="m 129.93995,262.55196 c -0.2697,-0.023 -0.56311,0.0611 -0.8099,-0.0623 -0.84702,-0.42351 -2.06702,-1.72548 -2.92809,-1.869 -1.0334,-0.17223 -2.38639,0.14193 -3.3642,-0.24919 -0.82383,-0.32954 -1.85178,-1.11894 -2.74119,-1.246 -3.16745,-0.45249 -6.35233,-0.72646 -9.46959,-1.246 -0.56324,-0.0939 -0.76576,-0.83002 -1.18369,-0.9345 -1.75137,-0.43784 -3.8077,0.1429 -5.54469,-0.4361 -0.69264,-0.23088 -1.41514,-1.2549 -1.9936,-1.3706 -0.50529,-0.10105 -1.03071,0.2124 -1.5575,0.1246 -2.98247,-0.49707 -6.093113,-3.76316 -7.849782,-6.10538 -0.190601,-0.25414 -0.695429,0.0223 -0.934499,-0.1869 -0.798988,-0.69912 -1.420932,-1.3838 -1.993596,-2.2428 -0.285851,-0.42878 -0.02799,-1.29053 -0.249199,-1.8067 -0.701589,-1.63704 -1.615722,-4.05764 -0.685299,-5.91849 0.937618,-1.87523 2.534284,-2.27803 3.987192,-3.48879 0.595659,-0.49638 0.329067,-0.78513 0.747599,-1.3083 0.594719,-0.7434 1.692454,-1.653 2.429694,-2.24279 0.91526,-0.73221 2.3951,-1.15775 3.1773,-1.7444"
     style="fill:none;stroke:#000000;stroke-width:1px;stroke-linecap:butt;stroke-linejoin:miter;stroke-opacity:1" />
  <path
     id="path3100"
     d="m 127.38565,264.54556 c -0.91733,-0.15032 -1.96693,0.22471 -2.86579,0 -0.9106,-0.22765 -1.6187,-1.21457 -2.492,-1.4329 -2.0507,-0.51268 -4.21678,-0.0977 -6.35459,-0.3115 -2.68602,-0.2686 -5.05084,-0.98717 -7.72518,-1.4329 -1.55425,-0.25904 -3.24242,0.18634 -4.79709,-0.1246 -1.46087,-0.29217 -3.19017,-0.49108 -4.61019,-1.05909 -0.24997,-0.1 -1.0191,-0.74094 -1.0591,-0.7476 -1.47477,-0.2458 -2.46684,-0.67214 -2.9281,-2.0559 -0.0127,-0.038 -0.698375,0 -0.747595,0 -0.58785,0 -1.327048,-0.24093 -1.806696,-0.5607 -0.809321,-0.53955 -1.427088,-2.00468 -1.868997,-2.74119 -0.411946,-0.68658 -1.116718,-1.30362 -1.682097,-1.869 -0.64521,-0.64521 -0.754786,-1.6174 -1.245997,-2.3051 -1.35719,-1.90006 -2.45013,-3.46736 -3.488794,-5.54469 -0.608206,-1.21641 -0.361971,-3.0795 -0.809898,-4.42329 -0.689769,-2.0693 1.917847,-6.20309 2.803494,-7.97438 0.236692,-0.47339 1.317041,-0.81177 1.516119,-1.80716"
     style="fill:none;stroke:#000000;stroke-width:1px;stroke-linecap:butt;stroke-linejoin:miter;stroke-opacity:1" />
  <path
     id="path3096"
     d="m 118.20337,279.14969 c 1.12448,-1.14434 2.63346,-2.22478 2.88999,-3.76395 0.10288,-0.61731 0.0472,-2.44477 -0.37379,-2.8658 -0.85677,-0.85677 -4.73607,-1.49494 -5.98079,-1.246 -2.93977,0.58796 -3.11121,2.92684 -5.35779,3.6757 -6.39806,2.13268 -13.95998,5.54229 -20.434366,2.30509"
     style="fill:none;stroke:#000000;stroke-width:1px;stroke-linecap:butt;stroke-linejoin:miter;stroke-opacity:1" />
  <path
     id="path3094"
     d="m 134.42554,327.28154 c -2.36123,-0.5928 -6.09035,0.13964 -7.97438,-1.74439 -0.17849,-0.17849 -1.8263,-0.6426 -1.9936,-0.8099 -0.32124,-0.32124 -1.44636,-0.609 -1.9313,-0.7476 -1.20419,-0.34406 -2.78766,-0.73916 -3.23959,-1.869 -0.0894,-0.2236 -5.48734,-1.91251 -6.04309,-3.30189"
     style="fill:none;stroke:#000000;stroke-width:1px;stroke-linecap:butt;stroke-linejoin:miter;stroke-opacity:1" />
  <path
     id="path3092"
     d="m 119.7742,306.15924 c -1.956,2.73068 -9.34576,15.06757 -6.28142,18.13191 1.98183,1.98183 11.97744,6.26785 14.76507,6.66608 2.17462,0.31066 4.27726,1.026 6.29229,0.623"
     style="fill:none;stroke:#000000;stroke-width:1px;stroke-linecap:butt;stroke-linejoin:miter;stroke-opacity:1"
     inkscape:connector-curvature="0"
     sodipodi:nodetypes="cssc" />
  <path
     id="path3090"
     d="m 154.4861,306.03728 c -1.59828,-0.33545 -2.96499,0.68991 -4.42329,0.8722 -0.93487,0.11686 -1.81188,-0.5594 -2.80349,-0.3115 -0.91232,0.22808 -1.83512,0.69951 -2.6789,1.1214 -0.64139,0.32069 -1.72431,0.20097 -2.42969,0.4361 -1.97963,0.65987 -4.01897,1.51108 -5.98079,2.49199 -0.34547,0.17273 -1.12004,-0.0536 -1.4952,0 -1.765,0.25214 -3.65063,1.09652 -5.54469,0.623 -0.46849,-0.11712 -0.97739,-0.53123 -1.6198,-0.623 -0.96483,-0.13783 -1.30773,0.0629 -1.93129,-0.5607 -0.47569,-0.47568 -2.3973,0.1489 -3.1773,-0.4361 -2.65361,-1.9902 -4.54789,-7.04126 -4.54789,-9.46958"
     style="fill:none;stroke:#000000;stroke-width:1px;stroke-linecap:butt;stroke-linejoin:miter;stroke-opacity:1" />
  <path
     id="path3088"
     d="m 177.28786,295.5709 c -2.59552,1.35199 -5.39434,2.4759 -7.91209,4.04949 -1.67711,1.0482 -3.48499,2.1163 -5.23319,2.9904 -1.12524,0.56262 -9.53757,3.97581 -9.78108,3.48879 -0.30518,-0.61036 -1.01748,-4.38026 -0.1246,-4.79709 4.76928,-2.22648 7.44048,-1.71063 11.33858,-4.04949 2.3523,-1.41138 2.90833,-4.90342 3.6134,-6.66609"
     style="fill:none;stroke:#000000;stroke-width:1px;stroke-linecap:butt;stroke-linejoin:miter;stroke-opacity:1" />
  <path
     id="path3086"
     d="m 133.36644,327.21924 c 5.86677,-0.21403 11.82026,1.08168 17.56857,-0.5607 0.92777,-0.26508 2.0932,0.13707 3.05269,0 0.57126,-0.0816 1.01453,-0.56661 1.5575,-0.7476 4.24343,-1.41447 5.42639,-1.92616 8.72198,-4.67249 1.59357,-1.32797 3.34237,-1.84716 5.04629,-3.55109 0.66536,-0.66536 0.91714,-1.97623 1.4329,-2.492 2.66392,-2.66392 5.34731,-11.80554 6.66609,-15.76187 0.49174,-1.47521 -0.3115,-3.41407 -0.3115,-4.61019"
     style="fill:none;stroke:#000000;stroke-width:1px;stroke-linecap:butt;stroke-linejoin:miter;stroke-opacity:1" />
  <path
     id="path3084"
     d="m 176.66486,318.24806 c -1.74617,2.39015 -4.60478,4.22556 -5.85619,6.72838 -0.14417,0.28835 -0.64615,0.10503 -0.9345,0.2492 -0.68785,0.34393 -1.23532,1.17303 -1.74439,1.6821 -0.17639,0.17639 -12.33086,5.21649 -13.14528,5.42009 -0.68317,0.17079 -1.48737,-0.11098 -2.18049,0.0623 -6.67127,1.66782 -13.152,-0.9345 -19.56217,-0.9345"
     style="fill:none;stroke:#000000;stroke-width:1px;stroke-linecap:butt;stroke-linejoin:miter;stroke-opacity:1" />
  <path
     id="path3082"
     d="m 188.12804,325.84864 c -5.68428,4.98223 -8.38742,13.27311 -15.69957,16.19797 -3.54979,1.41992 -9.24316,1.47114 -13.26988,1.8067 -3.62898,0.30241 -7.0495,1.52514 -10.77788,1.0591 -5.096,-0.637 -10.36363,-3.0527 -15.63727,-3.0527"
     style="fill:none;stroke:#000000;stroke-width:1px;stroke-linecap:butt;stroke-linejoin:miter;stroke-opacity:1" />
  <path
     id="path3078"
     d="m 245.75543,257.63022 c 1.52956,-0.90556 4.19503,-5.61746 5.29549,-6.16769 0.64831,-0.32415 1.28644,-0.22734 1.9313,-0.8722 0.86651,-0.8665 1.24642,-2.11862 2.1182,-2.99039 0.47186,-0.47186 1.21691,-0.64653 1.61979,-1.1837 1.18873,-1.58497 2.15861,-3.3423 3.5511,-4.73479 1.08323,-1.08323 2.72003,-1.53634 3.61339,-2.4297"
     style="fill:none;stroke:#000000;stroke-width:1px;stroke-linecap:butt;stroke-linejoin:miter;stroke-opacity:1" />
  <path
     id="path3076"
     d="m 236.90885,265.29311 c 0.65166,-1.27963 1.90978,-1.15199 2.86579,-1.869 0.65464,-0.49098 0.90734,-1.46804 1.4952,-2.0559 0.77798,-0.77798 1.72827,-1.30524 2.5543,-1.99359 0.66541,-0.55451 1.20524,-1.64775 2.05589,-1.9313 2.58721,-0.8624 6.07125,0.25358 8.90889,0.1246 2.24789,-0.10218 12.72728,-0.80084 14.45357,0.0623 0.84046,0.42023 1.48233,1.37534 2.30509,1.869 1.05983,0.63589 2.23405,0.82781 3.3019,1.68209 0.41152,0.32922 0.72547,1.35449 0.9968,1.8067 0.87164,1.45275 2.65166,2.49984 3.42649,4.04949 2.51405,5.0281 2.49304,9.09579 9.03348,9.09579"
     style="fill:none;stroke:#000000;stroke-width:1px;stroke-linecap:butt;stroke-linejoin:miter;stroke-opacity:1" />
  <path
     id="path3074"
     d="m 247.18833,276.07099 c 3.5208,-0.45322 4.19939,3.28436 6.66609,5.04629 2.88121,2.05801 5.85989,3.94079 8.97118,5.66929 2.93773,1.63207 5.21282,4.38845 7.84979,6.41688 2.2568,1.736 4.28501,5.54469 7.10218,5.54469"
     style="fill:none;stroke:#000000;stroke-width:1px;stroke-linecap:butt;stroke-linejoin:miter;stroke-opacity:1" />
  <path
     id="path3072"
     d="m 242.70274,286.16357 c 1.66626,0.54286 1.39572,2.11923 1.7444,3.86259 0.53286,2.66431 0.88362,5.51667 1.74439,8.09898 1.7143,5.1429 8.70733,10.95013 12.52228,14.76508 0.8884,0.8884 1.41126,2.03426 2.24279,2.86579 0.7774,0.77739 2.34606,1.14188 3.3019,1.6198 0.6563,0.32815 1.04001,1.7655 1.86899,1.9313 1.20008,0.24001 2.52966,-0.20139 3.738,0 3.45627,0.57604 8.08393,1.24976 11.58778,0.37379 0.62685,-0.15671 1.00974,-0.69824 1.43289,-1.12139 0.31079,-0.31079 1.3953,-0.43846 1.8067,-0.6853 0.74328,-0.44597 1.36438,-1.05288 1.9313,-1.6198 0.8036,-0.8036 5.07221,-1.04613 6.04309,-0.5607 1.79062,0.89531 1.02033,5.53778 1.30829,6.97759"
     style="fill:none;stroke:#000000;stroke-width:1px;stroke-linecap:butt;stroke-linejoin:miter;stroke-opacity:1" />
  <path
     id="path3070"
     d="m 194.04653,277.37928 c -2.07653,1.32359 -7.26488,6.61767 -8.41049,8.90889 -0.0987,0.19751 -1.35592,0.67062 -1.61979,0.9345 -0.5029,0.50289 -0.9071,1.10272 -1.3706,1.68209 -1.81257,2.26571 -2.74965,5.19281 -5.04629,6.91529"
     style="fill:none;stroke:#000000;stroke-width:1px;stroke-linecap:butt;stroke-linejoin:miter;stroke-opacity:1" />
  <path
     id="path3068"
     d="m 201.77171,278.68758 c -1.05504,0.0425 -1.50293,1.37989 -2.11819,2.1182 -0.6419,0.77028 -3.97482,3.71325 -4.23639,4.23639 -0.44855,0.8971 -2.73555,4.76765 -3.2396,5.17089 -0.46723,0.37379 -0.99875,0.66311 -1.3706,1.1837 -0.82551,1.15572 -0.8471,2.57882 -1.37059,3.80029 -0.99909,2.3312 -3.19788,4.61506 -4.54789,6.97759 -0.40691,0.71209 -0.40159,1.48847 -0.7476,2.18049 -0.48261,0.96522 -1.54767,1.83952 -1.869,2.8035 -0.34097,1.0229 -0.44556,1.87845 -1.246,2.67889 -0.53004,0.53005 -0.96515,2.02405 -1.43289,2.6789 -0.62659,0.87722 -0.80495,2.16068 -1.0591,3.17729 -0.023,0.0921 -1.99767,2.56108 -2.1805,2.8658"
     style="fill:none;stroke:#000000;stroke-width:1px;stroke-linecap:butt;stroke-linejoin:miter;stroke-opacity:1" />
  <path
     id="path3066"
     d="m 205.19821,300.11874 c 1.7189,2.60076 6.98213,4.07223 7.60058,7.16449 0.0557,0.27864 -3.33926,9.45709 -3.67569,10.46638 -0.88688,2.66064 -0.3738,-0.19666 -0.3738,2.61659"
     style="fill:none;stroke:#000000;stroke-width:1px;stroke-linecap:butt;stroke-linejoin:miter;stroke-opacity:1"
     inkscape:connector-curvature="0"
     sodipodi:nodetypes="ccsc" />
  <path
     id="path3064"
     d="m 213.35949,290.71146 c -0.014,0.0144 0,0 -0.0425,0.0429 -0.68451,0.69028 -1.70547,1.08211 -2.38717,1.76382 -0.77688,0.7769 -5.17097,6.47933 -5.60699,7.35138 -0.16799,0.33598 -0.084,0.90468 -0.3115,1.246 -0.39896,0.59844 -1.71202,0.96198 -1.9313,1.6198 -0.60416,1.81248 -1.94759,3.51324 -3.05269,5.17089 -0.67646,1.01469 -1.83422,2.14329 -2.492,3.23959 -0.52692,0.8782 -1.00561,1.19604 -1.61979,2.0559 -1.01381,1.41933 -1.3946,2.29555 -2.4297,3.67569 -0.23556,0.31408 -1.0167,1.17534 -1.246,1.5575 -0.47949,0.79915 -1.33668,1.75583 -1.86899,2.55429 -0.54609,0.81914 -0.75998,1.60091 -1.1837,2.5543 -0.37751,0.84939 -1.01853,1.85302 -1.1837,2.67889"
     style="fill:none;stroke:#000000;stroke-width:1px;stroke-linecap:butt;stroke-linejoin:miter;stroke-opacity:1"
     inkscape:connector-curvature="0"
     sodipodi:nodetypes="cssccssssssscc" />
  <path
     id="path3062"
     d="m 220.33708,280.74348 c -0.831,0.0694 -1.20324,0.92381 -1.9936,1.1214 -3.13064,0.78266 -6.85298,-0.54141 -6.85298,4.48559 0,0.80613 0.1283,2.3931 0.623,3.05269 1.14341,1.52455 2.64703,2.60043 4.23639,3.92489 1.06833,0.89028 1.82055,2.15421 2.86579,2.9904 1.26712,1.01369 3.18312,1.56429 4.29869,2.86579 0.5371,0.62662 0.58195,1.482 1.0591,2.1182 0.82892,1.10522 2.00984,1.89607 2.7412,3.11499 1.40201,2.33669 3.57314,4.12777 4.98399,6.47919 0.4371,0.7285 1.40384,2.33834 2.11819,3.0527 0.583,0.58299 0.79344,1.47873 1.3706,2.05589 1.00465,1.00465 3.43305,2.75628 4.79709,3.3019 1.0555,0.42219 4.09647,0.74793 4.79709,1.68209"
     style="fill:none;stroke:#000000;stroke-width:1px;stroke-linecap:butt;stroke-linejoin:miter;stroke-opacity:1" />
  <path
     id="path3060"
     d="m 209.933,240.56896 c -0.005,0.57487 0.28474,0.97298 0.623,1.42399 1.4108,1.88107 3.19552,3.50322 4.11179,5.79389 0.49699,1.24246 -0.0244,2.817 0.5607,3.98719 0.42364,0.84728 -0.009,4.09561 -0.1869,4.98399 -0.15479,0.77393 -0.0265,2.60733 -0.3738,3.3019 -0.35174,0.70348 -2.20534,3.82934 -2.86579,4.04949 -0.75156,0.25052 -4.07572,3.56421 -4.9217,3.98719 -1.77642,0.88821 -4.68086,0.48055 -6.72838,0.6853 -2.33971,0.23397 -4.27891,-0.6853 -6.41689,-0.6853"
     style="fill:none;stroke:#000000;stroke-width:1px;stroke-linecap:butt;stroke-linejoin:miter;stroke-opacity:1"
     inkscape:connector-curvature="0"
     sodipodi:nodetypes="csssccsssc" />
  <path
     id="path3058"
     d="m 191.86603,270.8378 c 6.3629,0.24565 9.67298,5.25151 16.88327,2.36739 1.08827,-0.43531 4.86016,-3.98834 5.35779,-4.73479 0.40055,-0.60082 0.52827,-1.49349 0.9968,-2.1182 3.42851,-4.57134 5.04937,-10.08025 3.80029,-15.07657 -0.17206,-0.68826 -0.0269,-1.57595 -0.2492,-2.24279 -0.28554,-0.85663 -1.48143,-1.32931 -1.74439,-2.1182 -0.85126,-2.55376 -3.25522,-5.56031 -4.2364,-6.54149"
     style="fill:none;stroke:#000000;stroke-width:1px;stroke-linecap:butt;stroke-linejoin:miter;stroke-opacity:1" />
  <path
     id="path3056"
     d="m 220.33708,280.74348 c -2.19582,-0.22057 -2.01101,-1.82411 -3.17729,-2.9904 -0.27752,-0.27751 -2.48956,-1.02733 -2.8658,-1.1214 -2.71833,-0.67958 -5.41953,0.21777 -7.60058,1.3083 -1.20956,0.60478 -3.26135,0.27036 -4.6102,0.8099 -0.52907,0.21163 -3.50728,-0.82838 -3.80029,-1.1214 -0.36415,-0.36415 -2.08096,0.11959 -2.67889,0 -2.72198,-0.54439 -4.85558,-2.36231 -6.16769,-4.11179"
     style="fill:none;stroke:#000000;stroke-width:1px;stroke-linecap:butt;stroke-linejoin:miter;stroke-opacity:1"
     inkscape:connector-curvature="0"
     sodipodi:nodetypes="cccsscsc" />
  <path
     id="path3054"
     d="m 227.19007,280.12048 c 2.71705,-1.26561 5.68785,-2.47013 8.59738,-3.92489 0.0276,-0.0138 3.42613,-0.51079 3.98719,-0.623 2.53739,-0.50748 5.45411,0.3115 7.91209,0.3115"
     style="fill:none;stroke:#000000;stroke-width:1px;stroke-linecap:butt;stroke-linejoin:miter;stroke-opacity:1" />
  <path
     id="path3052"
     d="m 220.33708,280.74348 c 0.88117,0.38048 6.90106,-1.01103 7.41369,-0.4984 2.11683,2.11683 1.01217,2.67258 3.98719,3.86259 0.78818,0.31528 1.44765,0.88761 2.30509,1.0591 0.91589,0.18318 2.30516,-0.17801 3.2396,-0.3115 1.62369,-0.23196 4.79965,0.40687 5.91849,1.246"
     style="fill:none;stroke:#000000;stroke-width:1px;stroke-linecap:butt;stroke-linejoin:miter;stroke-opacity:1"
     inkscape:connector-curvature="0"
     sodipodi:nodetypes="cssssc" />
  <path
     id="path3050"
     d="m 225.75717,274.63809 c -1.8384,0.63426 -4.28887,5.87914 -5.42009,6.10539"
     style="fill:none;stroke:#000000;stroke-width:1px;stroke-linecap:butt;stroke-linejoin:miter;stroke-opacity:1"
     inkscape:connector-curvature="0"
     sodipodi:nodetypes="cc" />
  <path
     id="path3048"
     d="m 216.53679,240.4354 c 0,0 0.37813,0.42166 0.6853,0.49845 2.61984,0.65496 2.47565,2.77184 3.92489,3.73799 0.6025,0.40167 2.57451,1.49354 2.80349,2.1805 1.39366,4.18098 0.90572,8.9661 1.3083,13.39448 0.4202,4.62215 0.3115,10.19768 0.3115,14.39127 2.93068,-0.34453 5.14505,-3.81207 7.28909,-5.42009 4.76258,-3.57194 4.04949,-3.00649 4.04949,-9.71878 0,-5.09247 -0.98941,-10.2061 -3.61339,-14.14208 -0.20222,-0.30332 -0.7212,-0.4654 -0.9968,-0.8099 -0.76111,-0.95138 -1.31826,-2.16428 -1.9936,-3.17729 -0.40595,-0.60893 -1.66369,-0.7731 -1.99359,-1.4329 -0.67527,-1.35053 -2.17829,-2.48978 -3.2396,-3.55109 -0.22946,-0.22946 -0.56756,-1.2921 -0.6853,-1.3706 -1.62546,-1.08364 -4.00301,-2.96995 -5.04629,-4.36099"
     style="fill:none;stroke:#000000;stroke-width:1px;stroke-linecap:butt;stroke-linejoin:miter;stroke-opacity:1"
     inkscape:connector-curvature="0"
     sodipodi:nodetypes="csssscsscsssscc" />
  <path
     id="path3046"
     d="m 167.50678,213.335 c 1.88283,-0.27827 3.45549,0.94972 5.23319,1.246 1.00169,0.16695 2.19478,-0.12103 3.17729,0.1246 2.66787,0.66697 5.61692,3.43146 8.22359,4.73479 2.86119,1.4306 6.48195,3.24052 9.46958,4.23639 2.59849,0.86617 6.06552,-1.00801 8.16128,-2.05589 0.43459,-0.2173 1.78049,0 2.2428,0 1.03494,0 2.23278,-0.0768 3.23959,0.1246 0.2875,0.0575 6.00018,5.06244 6.35459,5.35779 1.46956,1.22463 5.05764,2.63043 5.88018,3.72716"
     style="fill:none;stroke:#000000;stroke-width:1px;stroke-linecap:butt;stroke-linejoin:miter;stroke-opacity:1" />
  <path
     id="path3044"
     d="m 168.03985,204.77597 c 0.0535,1.96593 -0.0346,3.60692 -0.0346,5.56864 0,5.44874 -3.10998,5.91447 -6.85299,8.90888 -0.81188,0.6495 -1.22686,1.66296 -1.7444,2.1805 -0.47216,0.47217 -1.05909,1.55749 -1.05909,1.55749 0,0 2.845,1.25291 3.11499,1.4329 1.34757,0.89838 3.50517,1.46423 5.04629,1.8067 0.81811,0.1818 1.91199,-0.0687 2.6789,0.1869 0.77934,0.25978 1.23832,0.47507 2.05589,0.7476 0.96194,0.32064 2.904,0.68048 3.8626,0.87219 1.72739,0.34548 2.88975,0.8716 4.48559,1.1837 2.76945,0.54163 5.25579,2.28514 7.84978,3.4265 1.71117,0.75291 3.67774,1.76652 5.23319,2.80349 0.38108,0.25406 1.86247,0.44595 2.3051,0.623 0.94659,0.37864 1.88253,0.63653 2.61659,1.3706 0.32426,0.32426 2.40401,0.92593 2.8035,1.0591 0.67666,0.22555 1.68057,0.7196 2.36739,0.8722 1.67045,0.37121 3.06298,0.32964 4.73479,0.74759 0.82034,0.20509 1.66828,0.28765 2.52971,0.31425 1.04159,0.0322 2.1029,-0.0175 3.15895,-0.0312 1.39233,-0.0182 3.34476,0.0284 3.34476,0.0284"
     style="fill:none;stroke:#000000;stroke-width:1px;stroke-linecap:butt;stroke-linejoin:miter;stroke-opacity:1"
     inkscape:connector-curvature="0"
     sodipodi:nodetypes="cssscsscccsssssccsccc" />
  <path
     id="path3042"
     d="m 162.57199,202.28915 c 0.0606,0.86369 0.23327,1.56177 0.63608,1.76317 1.42165,0.71082 3.11192,0.73745 4.77394,0.72411 1.0398,-0.008 2.06855,-0.0323 3.01354,0.0858 6.42331,0.80291 13.03372,0.6853 19.56217,0.6853 2.28258,0 4.84751,-0.63784 7.10218,-0.1869"
     style="fill:none;stroke:#000000;stroke-width:1px;stroke-linecap:butt;stroke-linejoin:miter;stroke-opacity:1"
     inkscape:connector-curvature="0"
     sodipodi:nodetypes="cssssc" />
  <path
     id="path3040"
     d="m 157.165,166.23632 c 6.24396,-2.80201 13.11946,-2.24283 20.30976,-2.24283 3.32834,0 8.38868,-0.13416 11.77468,0.8099 1.60626,0.44785 6.66207,0.0302 8.53508,0.4984 2.19584,0.54896 3.98687,2.04686 6.04309,2.9281 1.99803,0.8563 4.04792,2.86579 5.98079,2.86579"
     style="fill:none;stroke:#000000;stroke-width:1px;stroke-linecap:butt;stroke-linejoin:miter;stroke-opacity:1"
     inkscape:connector-curvature="0"
     sodipodi:nodetypes="csscsc" />
  <path
     id="path3034"
     d="m 230.75543,177.76956 c 0.45991,1.52213 2.51617,3.96838 3.54071,4.76204"
     style="fill:none;stroke:#000000;stroke-width:1px;stroke-linecap:butt;stroke-linejoin:miter;stroke-opacity:1"
     inkscape:connector-curvature="0"
     sodipodi:nodetypes="cc" />
  <path
     style="fill:none;stroke:#000000;stroke-width:1px;stroke-linecap:butt;stroke-linejoin:miter;stroke-opacity:1"
     d="m 223.55775,209.58136 c -0.91226,-0.22138 -1.99336,0.10595 -2.90917,-0.0466 -1.76932,-0.29489 -3.39997,-0.76765 -5.23319,-0.9968 -1.46606,-0.18326 -3.02557,0.18104 -4.48559,-0.0623 -1.19335,-0.19889 -2.24541,-0.95267 -3.4265,-1.1214 -1.21014,-0.17287 -2.33487,-0.13055 -3.55109,-0.3738 -3.26757,-0.65351 -4.18041,0.74128 -6.54149,-1.61979"
     id="path3385" />
  <path
     style="fill:#33ff66;stroke:#000000;stroke-width:1px;stroke-linecap:butt;stroke-linejoin:miter;stroke-opacity:1"
     d="m 209.8084,171.09568 c -1.96034,-3.80858 5.35304,-1.24758 7.03989,-0.6853 1.34957,0.44986 3.17593,0.0616 4.42329,0.6853 3.51722,1.75861 6.60363,6.10119 9.76182,6.95114 -0.31339,1.07039 -1.82954,7.35096 -2.22354,7.87628 -0.44135,0.58847 -1.43711,2.49622 -1.61979,2.6789 -0.5089,0.5089 -1.5036,1.16144 -1.9313,1.9313 -1.1143,2.00573 -1.5227,1.47584 -3.29408,2.53866 -0.3501,0.21006 -0.96152,1.19271 -1.3083,1.3083 -1.5063,0.50212 -1.4099,1.328 -1.4952,1.3706 -0.60252,0.30129 -2.90177,0.4271 -3.61339,0.24919 -1.6111,-0.40277 -3.62991,-1.26251 -4.85939,-2.49199 -0.27849,-0.27849 -0.46861,-0.99945 -0.83766,-1.28962 0.38402,-0.0834 0.8253,-1.96263 1.39836,-2.82221 1.39524,-2.09287 2.26804,-0.12129 1.93129,-3.48879 -0.038,-0.38002 0.0444,-2.09162 -0.1246,-2.4297 -0.17434,-0.3487 -1.18721,-0.50193 -1.55749,-0.8722 -2.29564,-2.29564 -1.8084,-2.3725 -2.8035,-5.3578 -0.78008,-2.34024 2.38764,-4.43797 1.11544,-6.13424"
     id="path3543"
     inkscape:connector-curvature="0"
     sodipodi:nodetypes="cscccsssccsscsscssc" />
  <path
     style="fill:none;stroke:#000000;stroke-width:1px;stroke-linecap:butt;stroke-linejoin:miter;stroke-opacity:1"
     d="m 197.41853,205.34505 c -0.1139,-0.11391 0.82407,-0.29948 0.8722,-0.31151 0.53377,-0.13344 0.90401,-0.452 1.3706,-0.68529 1.24662,-0.62332 1.68933,-2.54197 2.55429,-3.5511 0.67352,-0.78576 1.04215,-1.8596 1.7444,-2.6789 0.63738,-0.74361 2.22389,-1.60088 3.11499,-2.49199 0.45994,-0.5063 1.211,-1.15284 1.6652,-1.74904 0.0632,-0.083 1.07088,-1.56819 1.12102,-1.64872"
     id="path3381"
     inkscape:connector-curvature="0"
     sodipodi:nodetypes="ccssscsc" />
  <path
     id="path3363"
     style="fill:none;stroke:#000000;stroke-width:1px;stroke-opacity:1"
     d="m 233.73155,182.55886 c 1.84987,-0.92493 6.25364,-0.27856 6.25364,-0.27856 3.2e-4,-0.005 5.68326,1.7112 7.58386,3.49363 0.38082,0.38083 1.39846,1.18475 1.92438,1.39512 2.22536,0.89015 4.97603,1.38021 7.03988,2.9281 1.48828,1.1162 3.34916,2.35236 4.73479,3.73799 0.51703,0.51703 1.39764,1.43015 2.0559,1.869 0.83026,0.5535 1.06259,1.11548 1.869,1.80669 0.52028,0.44596 1.55629,2.02445 2.18049,2.1805 1.40285,0.35071 2.74694,1.46241 3.8003,2.30509 0.7324,0.58592 1.0427,1.10501 1.74439,1.8067 0.88876,0.88876 3.8327,3.98921 4.29869,4.73479 1.36497,2.18395 2.74785,4.03759 4.2987,6.10539 0.81474,1.08632 1.53345,2.77945 2.49199,3.73799 0.6531,0.6531 2.12321,4.46698 2.5543,5.54469"
     inkscape:connector-curvature="0"
     sodipodi:nodetypes="cccssscsssssssc" />
  <path
     style="fill:none;stroke:#000000;stroke-width:1px;stroke-linecap:butt;stroke-linejoin:miter;stroke-opacity:1"
     d="m 233.73155,182.55886 c -0.66465,0.33233 -1.2083,7.66131 -1.43289,8.78428 -0.1213,0.60651 -0.68859,0.94436 -0.8722,1.4952 -0.43749,1.31248 -0.21402,1.89611 -1.1837,2.8658 -0.39464,0.39464 -0.64118,4.06767 -1.4329,4.85939 -0.22813,0.22813 -0.80888,0.20597 -1.05909,0.623 -0.4077,0.67948 -0.39439,1.49467 -0.623,2.18049 -0.18164,0.54491 -0.76688,0.99457 -1.0591,1.4329 -1.14086,1.71129 -1.1825,3.6125 -2.6789,4.73479"
     id="path3357" />
  <path
     style="fill:none;stroke:#000000;stroke-width:1px;stroke-linecap:butt;stroke-linejoin:miter;stroke-opacity:1"
     d="m 223.38977,209.53471 c 4.0447,1.18551 8.67147,2.18197 13.14528,2.74119 0.72234,0.0903 2.0174,-0.20019 2.61659,0.2492 4.5764,3.4323 7.24608,9.88987 10.21719,13.89288 0.33006,0.52145 2.02876,4.10071 2.49199,6.41689 0.40374,2.01868 -0.1517,4.19836 0.1869,6.22998 0.59787,3.58724 1.93145,7.89454 1.2432,11.33578"
     id="path3028"
     inkscape:connector-curvature="0"
     sodipodi:nodetypes="ccscssc" />
  <path
     id="path3026"
     d="m 315.8428,258.37782 c -1.15782,-0.0971 -2.32989,0.015 -3.48879,-0.0623 -1.53963,-0.10264 -2.43987,-0.30946 -3.98719,0 -0.67392,0.13478 -2.02145,-0.39103 -2.5543,-0.1246 -0.67742,0.33871 -4.22406,-0.10721 -5.04629,-0.4361 -1.10474,-0.4419 -3.49212,-1.7733 -4.29869,-2.74119 -0.62914,-0.75498 -1.92338,-1.79087 -2.3674,-2.6789 -0.0561,-0.11224 -0.11894,-0.51728 -0.2492,-0.5607 -1.87126,-0.62375 -3.86902,-2.80992 -5.10859,-4.04949 -0.30556,-0.30556 -0.70173,-1.07005 -1.0591,-1.3083 -2.98538,-1.99026 -7.47994,-2.20621 -10.77788,-2.86579 -2.54589,0.22934 -11.8299,-3.10793 -13.20757,-4.4856 -0.0357,-0.0357 0.27888,-0.15428 0.3115,-0.18689 0.31088,-0.31089 0.59481,-0.64334 0.9345,-0.9345 0.744,-0.63772 1.27297,-1.40631 2.11819,-1.7444 1.82649,-0.73059 3.19692,-1.90284 4.92169,-3.05269 0.88217,-0.58811 2.32551,-0.45651 3.115,-1.246 1.78639,-1.78639 3.99428,-2.72124 5.98079,-4.11179 1.82885,-1.2802 4.22941,-2.92112 5.54469,-4.2364 0.28512,-0.28512 1.29858,0.0623 1.68209,0.0623 4.44596,0 7.5368,2.40646 9.71879,6.04309 0.52598,0.87665 1.70597,1.29375 2.18049,2.2428 1.12437,2.24873 2.63535,7.37639 3.92489,9.09578"
     style="fill:none;stroke:#000000;stroke-width:1px;stroke-linecap:butt;stroke-linejoin:miter;stroke-opacity:1" />
  <path
     id="path3024"
     d="m 325.25008,285.91437 c 0.13521,-0.47356 -0.36025,-1.0239 -0.1246,-1.4952 0.28055,-0.5611 0.96699,-0.53357 1.1837,-1.1837 0.50957,-1.5287 1.36868,-3.99487 0.9345,-5.73159 -1.38987,-5.55947 -5.82666,-9.7734 -8.78428,-14.70277 -0.6912,-1.152 -1.55777,-2.36784 -2.3051,-3.61339 -1.28449,-2.14082 -1.67241,-4.97431 -3.48879,-6.79069 -0.2721,-0.27209 -0.76253,-0.25666 -1.1214,-0.4361 -1.09823,-0.54911 -2.53634,-1.9489 -3.36419,-3.05269 -1.61527,-2.15369 -2.99253,-6.66894 -4.2987,-8.41049"
     style="fill:none;stroke:#000000;stroke-width:1px;stroke-linecap:butt;stroke-linejoin:miter;stroke-opacity:1" />
  <path
     id="path3022"
     d="m 288.30625,276.13329 c 3.28651,1.07728 7.50106,0.24676 10.46638,1.43289 0.46977,0.18791 3.71396,2.75619 3.9872,2.9904 1.79017,1.53443 3.68258,4.31022 6.22998,4.73479 3.45885,0.57647 7.15907,0.86002 10.74262,0.60405 1.85639,-0.1326 3.80027,-0.67284 5.60698,-0.3115"
     style="fill:none;stroke:#000000;stroke-width:1px;stroke-linecap:butt;stroke-linejoin:miter;stroke-opacity:1"
     inkscape:connector-curvature="0"
     sodipodi:nodetypes="cssssc" />
  <path
     id="path3020"
     d="m 309.52068,322.22153 c -0.0525,-0.57563 -0.031,-1.53016 -0.0948,-2.10453 -0.29413,-2.6472 -0.66189,-4.99978 -0.1869,-7.84978 0.0889,-0.53349 0.78502,-0.94704 0.9968,-1.3706 0.8698,-1.7396 2.0182,-3.92596 1.3083,-6.29229 -0.48139,-1.60464 -3.01978,-3.48761 -4.23639,-4.29869 -0.51779,-0.34519 -1.18417,-0.18705 -1.7444,-0.3738 -0.76364,-0.25455 -1.6718,-1.30315 -2.42969,-1.6821 -0.58749,-0.29374 -1.06152,-0.10464 -1.6821,-0.31149 -1.86661,-0.62221 -8.60687,-4.17252 -10.09258,-3.9249 -5.5634,0.92723 -7.9567,4.67249 -14.45358,4.67249"
     style="fill:none;stroke:#000000;stroke-width:1px;stroke-linecap:butt;stroke-linejoin:miter;stroke-opacity:1"
     inkscape:connector-curvature="0"
     sodipodi:nodetypes="cccssssccsc" />
  <path
     id="path3018"
     d="m 290.48675,328.96359 c 1.36377,-0.24826 2.45554,-1.04499 3.86259,-1.246 5.72219,-0.81746 11.46611,-2.54635 15.88647,-6.22999 0.54935,-0.45779 1.44701,-0.57481 1.869,-0.9968 0.38369,-0.38369 0.56047,-1.034 1.0591,-1.43289 0.55371,-0.44297 1.49128,-0.73978 1.80669,-1.3706 0.25328,-0.50656 1.35262,-1.51736 1.9313,-1.8067 0.45307,-0.22653 0.5297,-0.9212 0.9968,-1.1214 0.62519,-0.26793 1.58198,-1.63203 2.1805,-1.93129 1.14479,-0.5724 0.94809,-1.94489 1.74439,-2.7412 2.62318,-2.62317 4.95432,-7.5768 5.73159,-11.46318 0.072,-0.35978 0.73031,-1.34466 0.9968,-1.74439 0.21647,-0.32471 0.045,-1.25639 0.1869,-1.6821 0.44091,-1.32274 0.11678,-4.98659 -0.8722,-6.41689 -0.42626,-0.14208 -0.69436,-0.75665 -0.9968,-1.0591 -0.73853,-0.73853 -1.05832,-1.38559 -1.6198,-1.80669"
     style="fill:none;stroke:#000000;stroke-width:1px;stroke-linecap:butt;stroke-linejoin:miter;stroke-opacity:1"
     inkscape:connector-curvature="0"
     sodipodi:nodetypes="cssscsscssccsccc" />
  <path
     id="path3016"
     d="m 257.21861,336.62647 c -0.1718,-1.8898 0.50492,-8.40722 -1.246,-9.28268 -0.5918,-0.2959 -1.27705,-1.49068 -1.37059,-1.5575 -0.73191,-0.52279 -1.87555,-0.54429 -2.5543,-0.99679 -0.90488,-0.60326 -2.05779,-0.9364 -2.74119,-1.6198 -0.16917,-0.16916 -1.44506,-0.895 -1.6821,-0.9345 -1.16471,-0.19412 -2.74991,-1.36124 -3.0527,-2.1182"
     style="fill:none;stroke:#000000;stroke-width:1px;stroke-linecap:butt;stroke-linejoin:miter;stroke-opacity:1" />
  <path
     id="path3014"
     d="m 240.14844,340.61367 c 1.28194,-0.0467 2.1699,-1.49167 3.3019,-1.869 0.59485,-0.19828 1.41789,-0.10742 2.05589,-0.2492 2.53773,-0.56394 5.21009,-1.0881 7.72519,-1.8067 1.83378,-0.52393 4.31263,-0.0362 6.22999,-0.2492 0.84039,-0.0934 1.66653,-0.79043 2.49199,-0.99679 1.13634,-0.28409 2.50423,0.11714 3.6757,0 0.47368,-0.0474 3.55455,-0.93624 4.04949,-1.1837 0.33079,-0.1654 5.7932,-0.74746 6.72839,-0.9345 4.06092,-0.81219 11.07048,-3.13236 14.45357,-4.48559"
     style="fill:none;stroke:#000000;stroke-width:1px;stroke-linecap:butt;stroke-linejoin:miter;stroke-opacity:1" />
  <path
     id="path3012"
     d="m 206.8803,365.40902 c -1.24548,-3.3049 -7.01291,-7.27236 -5.91848,-11.65008 0.17936,-0.71747 1.16298,-1.1319 1.43289,-1.8067 0.44936,-1.12338 1.00472,-2.53157 1.246,-3.73799 0.0966,-0.48306 1.04445,-1.47323 1.3083,-1.869 0.81745,-1.22617 0.96647,-2.11984 1.6198,-3.42649 0.19153,-0.38307 1.38531,-1.32302 1.80669,-1.7444 0.78946,-0.78945 1.32285,-1.12661 1.7444,-2.18049 0.18825,-0.47062 1.02108,-1.00735 1.1837,-1.4952 0.40285,-1.20855 0.39296,-4.14058 0.1246,-5.48239 -0.12423,-0.62113 -1.50053,-2.00425 -1.869,-2.74119 -0.80184,-1.60369 -1.95222,-7.38579 -0.8099,-8.90889"
     style="fill:none;stroke:#000000;stroke-width:1px;stroke-linecap:butt;stroke-linejoin:miter;stroke-opacity:1" />
  <path
     id="path3010"
     d="m 189.93474,369.45851 c 6.37613,-0.0945 12.47448,-2.00085 18.19156,-4.85939 0.49693,-0.24846 0.9622,-0.95527 1.4329,-1.3083 1.02115,-0.76586 2.52903,-1.55479 3.67569,-2.24279 1.70895,-1.02537 5.18138,-2.87629 6.54149,-4.23639 0.60046,-0.60047 1.13863,-1.53421 1.869,-2.0559 1.2803,-0.91451 2.62199,-1.37599 3.73799,-2.492 0.23202,-0.23201 1.10145,-0.91455 1.4329,-1.24599 0.66693,-0.66694 1.79669,-0.8622 2.42969,-1.4952 0.37676,-0.37675 0.63571,-1.07889 1.1214,-1.4952 0.71965,-0.61684 1.75302,-0.88082 2.3674,-1.4952 0.75912,-0.75912 1.38991,-1.49818 2.24279,-2.18049 0.45903,-0.36722 1.20773,-0.67705 1.7444,-0.8722 1.64537,-0.59832 3.06333,-1.7763 3.42649,-2.86579"
     style="fill:none;stroke:#000000;stroke-width:1px;stroke-linecap:butt;stroke-linejoin:miter;stroke-opacity:1"
     inkscape:connector-curvature="0"
     sodipodi:nodetypes="csssssccsssssc" />
  <path
     id="path3008"
     d="m 138.53733,369.83231 c 1.95104,0.10772 2.98291,1.63973 5.04629,1.869 4.16971,0.4633 8.7585,0.37809 12.89608,-0.3115 2.58695,-0.43116 5.26566,0.19611 7.84978,-0.0623 0.6256,-0.0626 1.25557,-0.0993 1.869,-0.1869 0.55015,-0.0786 1.13529,0.0335 1.6821,0.1246 1.04107,0.17351 2.22859,-0.2747 3.23959,0.0623 0.93344,0.31115 2.13686,0.38471 3.1773,0.1246 1.66123,-0.41531 3.68956,0.35203 5.35779,-0.1246 1.67297,-0.47799 3.31855,-1.18925 4.98399,-1.7444 1.60449,-0.53483 4.29231,0.0387 5.73159,-0.2492"
     style="fill:none;stroke:#000000;stroke-width:1px;stroke-linecap:butt;stroke-linejoin:miter;stroke-opacity:1" />
  <path
     id="path3006"
     d="m 113.24358,359.92663 c 0.17441,-3.87426 0.37245,-8.09493 1.6198,-11.83698 0.19389,-0.58168 0.28528,-1.56087 0.37379,-2.18049 0.0828,-0.57948 0.31528,-0.82122 0.4984,-1.3706 0.11389,-0.34165 1.28696,-2.49854 1.5575,-2.6789 0.83487,-0.55658 1.69211,-1.31831 2.3674,-1.99359 0.193,-0.193 0.30825,-0.39928 0.39671,-0.59817"
     style="fill:none;stroke:#000000;stroke-width:1px;stroke-linecap:butt;stroke-linejoin:miter;stroke-opacity:1"
     inkscape:connector-curvature="0"
     sodipodi:nodetypes="csccscc" />
  <path
     id="path3004"
     d="m 82.841236,320.3662 c 0.227377,8.00719 4.015431,18.36791 11.338579,22.55256 2.371075,1.3549 5.092985,2.32844 7.289085,3.4265 0.80467,0.40233 3.91024,3.59141 4.54789,4.54789 0.40857,0.61284 1.00575,1.38066 1.4952,1.93129 1.74125,1.95891 3.55229,5.35869 5.54469,6.85299 1.02758,0.77069 2.53342,1.05486 3.55109,1.869 2.7864,2.22912 5.05523,5.13233 8.53509,6.29229 2.25987,0.75329 10.26346,-0.78676 12.08617,0.12459 0.88261,0.44131 0.76138,1.89668 1.869,2.1182"
     style="fill:none;stroke:#000000;stroke-width:1px;stroke-linecap:butt;stroke-linejoin:miter;stroke-opacity:1" />
  <path
     id="path3002"
     d="m 181.83575,280.61888 c -0.51076,0.35803 -0.86086,1.17236 -1.3083,1.61979 -0.73578,0.73579 -2.12503,0.96097 -2.99039,1.6821 -2.47895,2.0658 -4.3246,5.05924 -7.16449,6.47919 -1.43996,0.71998 -2.80829,-0.1246 -3.98719,-0.1246 -2.03775,0 -4.22493,0.75906 -5.66929,-0.6853 -0.39823,-0.39823 -2.12905,-1.1157 -2.74119,-1.1837 -0.7684,-0.0854 -6.55383,-1.44523 -6.91529,-1.80669 -0.33041,-0.33041 -2.04776,-0.4361 -2.5543,-0.4361 -4.52751,0 -8.99348,1.91129 -12.89607,3.86259 -0.87709,0.43854 -1.94618,0.45098 -2.6789,1.1837 -0.3017,0.3017 -1.81138,0.36415 -2.24279,0.623 -2.92783,-1.13731 -5.15446,1.29186 -7.03989,3.17729 -0.27495,0.27495 -1.28442,0.29558 -1.6821,0.5607 -0.60236,0.40158 -0.63201,1.08143 -1.18369,1.4952 -0.22536,0.16901 -0.83521,0.21221 -0.9968,0.3738 -0.79927,0.79926 -1.01288,1.82278 -1.8067,2.61659 -1.91165,1.91165 -8.84247,0.76215 -11.52548,1.4329 -1.31747,0.32937 -2.45251,1.14977 -3.67569,1.5575 -1.32843,0.44281 -2.66952,0.6518 -4.04949,0.99679 -0.68995,0.17249 -1.45098,0.86474 -2.1182,1.246 -2.373496,1.35628 -4.589238,2.72548 -6.852987,4.42329 -1.147439,0.86058 -2.128898,2.565 -3.177294,3.6134 -1.861326,1.86132 -4.288334,5.75748 -3.551094,7.60058"
     style="fill:none;stroke:#000000;stroke-width:1px;stroke-linecap:butt;stroke-linejoin:miter;stroke-opacity:1" />
  <path
     id="path3000"
     d="m 172.86457,237.50736 c 4.16296,0.43854 8.19609,2.46206 12.21078,3.80029 0.37497,0.12499 0.90594,0.32837 1.24599,0.4984 0.81205,0.40602 4.71329,2.14824 5.10859,2.74119 0.52415,0.78623 0.43374,2.41786 0.623,3.3642 0.37083,1.85415 -1.54647,2.52122 -1.86899,3.48879 -0.30046,0.90136 -0.27071,4.46186 -0.0623,5.29549 0.19346,0.77386 0.2138,1.69185 0.3738,2.492 0.49101,2.45503 1.93244,3.86488 2.92809,5.85619 0.21544,0.43088 0.24948,0.99736 0.4361,1.37059 1.08983,2.17966 -2.96801,5.13732 -3.86259,6.47919 -0.47097,0.70645 -2.31304,4.00873 -2.8658,4.42329 -1.63553,1.22665 -4.32112,2.53997 -5.66929,3.5511"
     style="fill:none;stroke:#000000;stroke-width:1px;stroke-linecap:butt;stroke-linejoin:miter;stroke-opacity:1" />
  <path
     id="path2998"
     d="m 114.80108,250.40343 c -2.14751,-1.57226 -4.09989,-4.9693 -3.3642,-7.91208 0.47767,-1.91068 5.71265,-3.67569 7.47599,-3.67569 1.0904,0 2.29511,0.17818 3.36419,0 0.73151,-0.12192 1.36036,-0.55411 2.1182,-0.623 2.88136,-0.26195 5.65661,0.5845 8.65968,0.3115 2.08363,-0.18942 4.20575,-0.98914 6.22999,-1.4952 1.54259,-0.38565 3.69613,0.35306 5.35779,0.1869 4.53377,-0.45338 12.03133,-2.59068 16.50947,-1.9936 1.42545,0.19006 2.92187,0.8247 4.29869,0.9968 1.79685,0.22461 4.14405,-0.0723 5.85619,0.4984 0.63748,0.21249 1.30231,0.70902 1.8067,0.8099"
     style="fill:none;stroke:#000000;stroke-width:1px;stroke-linecap:butt;stroke-linejoin:miter;stroke-opacity:1" />
  <path
     id="path3548"
     d="m 25.002845,266.27576 c 0.456192,3.77923 3.768142,4.20424 5.649996,6.0861 0.420813,0.42081 4.317893,17.18246 7.230568,18.63879 4.721574,2.36079 11.417067,3.4524 17.514043,1.92816 2.183678,-0.54592 4.308337,-0.96917 6.92557,-0.31486 6.333002,1.58325 13.178753,0.76214 20.370191,2.20042 5.578229,1.11565 12.628257,0.0426 17.051727,0.0426"
     style="fill:none;stroke:#000000;stroke-width:1px;stroke-linecap:butt;stroke-linejoin:miter;stroke-opacity:1" />
  <path
     id="path3559"
     d="m 134.67993,261.08427 c -0.12489,-0.55504 -0.30275,-1.08299 -0.54963,-1.57675 -2.08971,-4.17942 -8.08992,-4.1253 -12.05094,-6.10581 -1.77197,-0.88598 -5.58692,-2.82058 -7.55193,-3.21358"
     style="fill:#ffffff;stroke:#000000;stroke-width:1px;stroke-linecap:butt;stroke-linejoin:miter;stroke-opacity:1" />
  <path
     sodipodi:nodetypes="csscsscsscccccsssc"
     inkscape:connector-curvature="0"
     d="m 99.74494,294.85697 c 1.38346,0 5.07427,1.89442 6.42717,2.57087 6.13957,3.06978 14.33805,-4.25285 16.22861,-8.03397 0.36565,-0.73131 2.04333,-1.03376 2.41019,-1.76747 0.29912,-0.59825 6.83599,-3.14038 8.67667,-4.98106 1.86362,-1.86361 2.0986,-6.06676 1.44612,-8.67668 -1.01369,-4.05476 0.59783,-9.09953 -0.25636,-13.02275 -0.75693,-0.13835 -2.01786,0.13867 -3.1732,0.63206 -0.65475,0.27961 -1.27559,0.62872 -1.75109,1.03629 -0.10541,0.0904 -0.23339,0.16853 -0.37411,0.23833 -0.48043,0.23829 -1.10931,0.37878 -1.49489,0.57157 -0.21507,0.10754 -0.3417,0.4781 -0.4175,0.94477 -0.1502,0.92355 -0.1007,2.22354 -0.1432,2.60632 -0.97367,8.76307 1.71375,12.67769 -8.83515,12.17129 -0.10999,0.21404 -0.80475,0.55871 -1.00823,0.84939 -1.06468,1.52096 -2.35291,2.91361 -3.67569,4.23639 -1.53299,1.53299 -3.2595,2.96109 -4.85939,4.36099 -3.0802,2.69518 -7.08173,3.91302 -10.21718,6.41689"
     style="fill:#f4eed7;stroke:#000000;stroke-width:1px;stroke-linecap:butt;stroke-linejoin:miter;stroke-opacity:1"
     id="path3557" />
  <path
     id="path3158"
     d="m 25.029065,266.25604 c 0,-2.56713 -1.364489,-11.73215 -0.160679,-14.13977 2.97069,-5.94138 2.512622,-13.92085 5.945134,-20.2456 0.601635,-1.10857 0.355761,-3.8907 1.285434,-4.82037 1.382473,-1.38248 2.639955,-5.27992 3.695624,-7.39126 1.334635,-2.66927 1.560427,-5.58981 1.446114,-9.15871 1.369676,-3.41324 6.686216,-7.48961 10.444154,-11.24755 1.260759,-1.26076 1.09692,-3.98915 2.731548,-5.62378 1.373032,-1.37303 3.241897,-2.11714 4.49902,-3.37426 3.363799,-3.3638 9.894086,-4.81585 13.221069,-6.64453"
     style="fill:none;stroke:#000000;stroke-width:1px;stroke-linecap:butt;stroke-linejoin:miter;stroke-opacity:1" />
  <g
     style="fill:#fff6d5"
     id="BA8R">
    <path
       sodipodi:nodetypes="ccsssccsssssscccssccscsssssccc"
       inkscape:connector-curvature="0"
       d="m 68.136483,183.61021 c 0.382899,-0.21046 0.723369,-0.42591 1.011699,-0.64984 2.183129,-0.51956 4.376469,-1.81504 6.590867,-3.08041 3.297617,-1.88435 5.8921,-4.69289 9.543552,-5.91004 0.843274,-0.2811 3.446981,-1.54725 4.423292,-1.0591 0.305929,0.15296 0.894097,0.20682 1.475608,0.20719 m 37.106989,22.21543 c 0.40513,3.35091 -3.69237,7.36637 -6.69672,6.16463 -1.04466,-0.41786 -3.82869,-0.63719 -4.7971,-1.12139 -1.19616,-0.59808 -3.28943,-0.95942 -4.48559,-1.5575 -3.18714,-1.59357 -0.57267,-1.1837 -5.10859,-1.1837 -0.82488,0 -1.6541,-0.32655 -2.492,-0.1869 -3.68094,0.61349 -7.44139,2.00283 -10.964775,3.1773 -1.637959,0.54598 -3.131478,1.98443 -4.485592,2.18047 -0.669944,0.24303 -2.068921,1.15481 -3.049462,1.64508 M 68.100555,183.50159 c -0.0044,2.08733 0.696132,4.37721 1.034706,6.40866 1.068143,6.40885 5.370522,7.03236 10.59098,9.84338 0.943003,0.50777 5.74362,5.10257 6.977587,4.48559 m 4.797092,-30.09084 c 0.405059,1.50329 2.116075,1.9674 3.30189,2.67889 0.49201,0.2952 0.60778,0.9129 1.0591,1.1837 2.58627,1.55176 5.45902,2.96823 8.16129,4.42329 2.08503,1.12271 3.52103,3.06918 5.29549,4.54789 0.73047,0.60873 2.22188,0.88969 3.11499,1.3706 2.12778,1.14573 3.89011,2.72629 6.10539,3.67569 1.78328,0.76427 4.28405,-0.19129 6.16769,0.3738 2.45515,0.73655 3.06195,2.69415 3.58459,2.95547 M 91.43862,173.02698 c -0.09038,0.87206 0.202976,1.69817 0.622999,2.11819"
       style="fill:#aa8800;stroke:#000000;stroke-width:1px;stroke-linecap:butt;stroke-linejoin:miter;stroke-opacity:1"
       id="path3148" />
  </g>
  <g
     style="fill:#6c5353"
     id="BA6R">
    <path
       sodipodi:nodetypes="cssccssssssssssccsc"
       inkscape:connector-curvature="0"
       d="m 139.49724,202.45807 c 0.75075,-0.62832 1.03203,-1.5888 1.37314,-1.60029 4.96807,-0.16736 10.84992,0.83662 15.54702,2.01089 1.95759,0.4894 4.13464,-0.57952 6.15459,-0.57952 m -75.369762,28.30297 c -0.247398,-1.95229 1.123172,-2.77368 2.491995,-3.80029 0.58873,-0.44155 0.902879,-1.744 1.557497,-2.3051 1.92797,-1.65254 4.20426,-3.47273 6.47919,-4.61019 1.77398,-0.88699 3.87047,-1.24836 5.73159,-1.8067 1.66361,-0.49908 3.13951,-1.95615 4.85939,-2.24279 2.59926,-0.43321 4.79662,-1.49923 7.35138,-2.1805 1.78976,-0.47727 3.6243,-0.84514 5.35779,-1.4952 1.50803,-0.56551 2.84131,-1.66985 4.2364,-2.36739 1.19114,-0.59557 2.57809,-0.67466 3.73799,-1.3706 1.3995,-0.8397 2.67213,-2.2844 4.17409,-2.92809 1.6056,-0.68812 5.43596,-1.00276 6.46547,-2.37544 m -0.0885,-0.70546 c -2.06234,-1.54675 -4.10437,-5.47051 -6.93769,-6.88716 -1.32409,-0.66205 -3.61371,0.23217 -4.68937,-0.30561"
       style="fill:#6c5353;stroke:#000000;stroke-width:1px;stroke-linecap:butt;stroke-linejoin:miter;stroke-opacity:1"
       id="path3112" />
    <path
       inkscape:connector-curvature="0"
       style="fill:#6c5353;stroke:#000000;stroke-width:1px;stroke-linecap:butt;stroke-linejoin:miter;stroke-opacity:1"
       d="m 157.165,166.23632 c 0.62405,1.93934 3.28519,2.99647 4.61019,4.98396 0.29553,0.4433 1.19885,0.52871 1.4329,0.9968 0.60863,1.21726 -0.70766,8.06859 -0.9345,9.65648 -0.61264,4.28849 -0.0643,11.69219 0.3738,16.07337 0.0698,0.69802 -0.18433,2.7882 -0.0754,4.34222"
       id="path3188"
       sodipodi:nodetypes="cssssc" />
    <path
       d="m 91.50092,174.14838 c 0.405059,1.50329 2.116075,1.9674 3.30189,2.67889 0.49201,0.2952 0.60778,0.9129 1.0591,1.1837 2.58627,1.55176 5.45902,2.96823 8.16129,4.42329 2.08503,1.12271 3.52103,3.06918 5.29549,4.54789 0.73047,0.60873 2.22188,0.88969 3.11499,1.3706 2.12778,1.14573 3.89011,2.72629 6.10539,3.67569 1.78328,0.76427 4.28405,-0.19129 6.16769,0.3738 M 91.43862,173.02698 c -0.09038,0.87206 0.202976,1.69817 0.622999,2.11819"
       style="fill:#6c5353;stroke:#000000;stroke-width:1px;stroke-linecap:butt;stroke-linejoin:miter;stroke-opacity:1"
       id="path3116"
       inkscape:connector-curvature="0"
       sodipodi:nodetypes="cscssssccc" />
    <path
       inkscape:connector-curvature="0"
       style="fill:#6c5353;stroke:#000000;stroke-width:1px;stroke-linecap:butt;stroke-linejoin:miter;stroke-opacity:1"
       d="m 91.181501,173.11801 c 0.508033,3.3e-4 1.010985,-0.0402 1.316217,-0.091 1.538561,-0.25642 3.523002,-1.6233 4.983992,-2.3051 2.26803,-1.05841 7.9644,-5.13551 10.06143,-4.73479 5.0182,0.0239 10.08302,-0.32348 15.23232,-1.0591 1.26633,-0.1809 2.61729,-0.29084 3.86259,-0.49839 1.36335,-0.22723 2.75,-1.00273 4.1741,-1.1214 1.78956,-0.14913 3.74497,-0.53302 5.54469,-0.8099 4.59162,-0.70641 14.22238,-0.82754 18.31616,2.24279 0.71589,0.53692 1.98134,0.98455 2.492,1.4952"
       id="path3214" />
  </g>
</svg>
